<svg xmlns="http://www.w3.org/2000/svg" xmlns:xlink="http://www.w3.org/1999/xlink" viewBox="0 0 416.02 269.17"><defs><style>.cls-1{isolation:isolate;}.cls-2{fill:#fff;}.cls-3{opacity:0.94;}.cls-4{fill:url(#linear-gradient);}.cls-5{fill:url(#linear-gradient-2);}.cls-6{fill:url(#linear-gradient-3);}.cls-7{fill:url(#linear-gradient-4);}.cls-8{fill:url(#linear-gradient-5);}.cls-9{fill:url(#linear-gradient-6);}.cls-10{fill:url(#linear-gradient-7);}.cls-11{fill:url(#linear-gradient-8);}.cls-12{fill:url(#linear-gradient-9);}.cls-13{fill:url(#linear-gradient-10);}.cls-14{fill:#cec4d6;}.cls-15{fill:#e5dfe9;}.cls-16{fill:url(#linear-gradient-11);}.cls-17{fill:url(#linear-gradient-12);}.cls-18{fill:#5c479e;}.cls-19{fill:#aca5b5;}.cls-20{fill:#c0b8cc;}.cls-21{fill:#34254c;}.cls-22{fill:#51347f;}.cls-23{fill:url(#linear-gradient-13);}.cls-24{fill:url(#linear-gradient-14);}.cls-25{fill:url(#linear-gradient-15);}.cls-26{fill:url(#linear-gradient-16);}.cls-27{fill:url(#linear-gradient-17);}.cls-28{fill:url(#linear-gradient-18);}.cls-29{fill:url(#linear-gradient-19);}.cls-30{fill:url(#linear-gradient-20);}.cls-31{fill:url(#linear-gradient-21);}.cls-32{fill:url(#linear-gradient-22);}.cls-33{fill:url(#linear-gradient-23);}.cls-34{fill:url(#linear-gradient-24);}.cls-35{fill:url(#linear-gradient-25);}.cls-36{fill:url(#linear-gradient-26);}.cls-37{fill:#c8b8d3;}.cls-38{fill:url(#linear-gradient-27);}.cls-39{fill:url(#linear-gradient-28);}.cls-40{fill:url(#linear-gradient-29);}.cls-41{fill:url(#linear-gradient-30);}.cls-42{fill:url(#linear-gradient-31);}.cls-43{fill:url(#linear-gradient-32);}.cls-44{fill:url(#linear-gradient-33);}.cls-45{fill:url(#linear-gradient-34);}.cls-46{fill:url(#linear-gradient-35);}.cls-47{fill:#2d2244;}.cls-48{fill:url(#linear-gradient-36);}.cls-49{fill:url(#linear-gradient-37);}.cls-50{fill:url(#linear-gradient-38);}.cls-51{fill:url(#linear-gradient-39);}.cls-52{fill:url(#linear-gradient-40);}.cls-53{fill:url(#linear-gradient-41);}.cls-54{fill:url(#linear-gradient-42);}.cls-55{fill:url(#linear-gradient-43);}.cls-56{fill:url(#linear-gradient-44);}.cls-57{fill:url(#linear-gradient-45);}.cls-58{fill:url(#linear-gradient-46);}.cls-59{fill:url(#linear-gradient-47);}.cls-60{fill:url(#linear-gradient-48);}.cls-61{fill:url(#linear-gradient-49);}.cls-62{fill:url(#linear-gradient-50);}.cls-63{fill:url(#linear-gradient-51);}.cls-64{fill:url(#linear-gradient-52);}.cls-65{fill:url(#linear-gradient-53);}.cls-66{fill:url(#linear-gradient-54);}.cls-67{fill:url(#linear-gradient-55);}.cls-68{fill:url(#linear-gradient-56);}.cls-69{fill:url(#linear-gradient-57);}.cls-70{fill:url(#linear-gradient-58);}.cls-71{fill:url(#linear-gradient-59);}.cls-72{fill:url(#linear-gradient-60);}.cls-73{fill:url(#linear-gradient-61);}.cls-74{fill:url(#linear-gradient-62);}.cls-75{fill:url(#linear-gradient-63);}.cls-76{fill:url(#linear-gradient-64);}.cls-77{fill:url(#linear-gradient-65);}.cls-78{fill:url(#linear-gradient-66);}.cls-79{fill:#988ca5;}.cls-80{fill:url(#linear-gradient-67);}.cls-81{fill:url(#linear-gradient-68);}.cls-82,.cls-83{mix-blend-mode:overlay;}.cls-82{fill:url(#linear-gradient-69);}.cls-83{opacity:0.57;fill:url(#linear-gradient-70);}</style><linearGradient id="linear-gradient" x1="184.87" y1="127.82" x2="232.29" y2="127.82" gradientTransform="matrix(1, -0.07, 0.07, 1, -13.32, 14.88)" gradientUnits="userSpaceOnUse"><stop offset="0" stop-color="#34254c"/><stop offset="1" stop-color="#51397f"/></linearGradient><linearGradient id="linear-gradient-2" x1="177" y1="182.36" x2="232.11" y2="182.36" gradientTransform="matrix(1, -0.07, 0.07, 1, -13.32, 14.88)" gradientUnits="userSpaceOnUse"><stop offset="0" stop-color="#e1dae5"/><stop offset="1" stop-color="#f7f4f9"/></linearGradient><linearGradient id="linear-gradient-3" x1="160.35" y1="156.9" x2="175.86" y2="156.9" gradientTransform="matrix(1, -0.07, 0.07, 1, -13.32, 14.88)" gradientUnits="userSpaceOnUse"><stop offset="0" stop-color="#c8b8d3"/><stop offset="1" stop-color="#c8b8d3" stop-opacity="0.3"/></linearGradient><linearGradient id="linear-gradient-4" x1="158.21" y1="171.76" x2="223.44" y2="171.76" xlink:href="#linear-gradient-3"/><linearGradient id="linear-gradient-5" x1="181.31" y1="220.94" x2="194.71" y2="220.94" gradientTransform="matrix(1, -0.07, 0.07, 1, -13.32, 14.88)" gradientUnits="userSpaceOnUse"><stop offset="0" stop-color="#c8b8d3" stop-opacity="0.9"/><stop offset="1" stop-color="#c8b8d3" stop-opacity="0.3"/></linearGradient><linearGradient id="linear-gradient-6" x1="192.6" y1="192.98" x2="233.23" y2="192.98" xlink:href="#linear-gradient-5"/><linearGradient id="linear-gradient-7" x1="227.85" y1="213.72" x2="245.45" y2="213.72" xlink:href="#linear-gradient-5"/><linearGradient id="linear-gradient-8" x1="256.08" y1="181.5" x2="240.47" y2="189.7" gradientTransform="matrix(1, -0.07, 0.07, 1, -13.32, 14.88)" gradientUnits="userSpaceOnUse"><stop offset="0" stop-color="#fff"/><stop offset="1" stop-color="#fff" stop-opacity="0"/></linearGradient><linearGradient id="linear-gradient-9" x1="182.89" y1="128.76" x2="193.3" y2="146.03" xlink:href="#linear-gradient-3"/><linearGradient id="linear-gradient-10" x1="234.91" y1="119.92" x2="225.77" y2="136.16" xlink:href="#linear-gradient-8"/><linearGradient id="linear-gradient-11" x1="184.26" y1="170.18" x2="224.28" y2="170.18" xlink:href="#linear-gradient"/><linearGradient id="linear-gradient-12" x1="191.18" y1="171.43" x2="238.31" y2="169.45" gradientTransform="matrix(1, -0.07, 0.07, 1, -13.32, 14.88)" gradientUnits="userSpaceOnUse"><stop offset="0" stop-color="#2d2244"/><stop offset="1" stop-color="#3e2c5e" stop-opacity="0"/></linearGradient><linearGradient id="linear-gradient-13" x1="188.24" y1="127.79" x2="196.12" y2="153.76" gradientTransform="matrix(1, -0.07, 0.07, 1, -13.32, 14.88)" gradientUnits="userSpaceOnUse"><stop offset="0" stop-color="#ce1d3b"/><stop offset="1" stop-color="#ed202e"/></linearGradient><linearGradient id="linear-gradient-14" x1="222.51" y1="116.09" x2="227.34" y2="138.27" xlink:href="#linear-gradient-13"/><linearGradient id="linear-gradient-15" x1="194.95" y1="154.78" x2="218.19" y2="153.31" gradientTransform="matrix(1, -0.07, 0.07, 1, -13.32, 14.88)" gradientUnits="userSpaceOnUse"><stop offset="0" stop-color="#a193ad"/><stop offset="1" stop-color="#cec4d6"/></linearGradient><linearGradient id="linear-gradient-16" x1="211.71" y1="163.34" x2="208.53" y2="138.78" xlink:href="#linear-gradient-2"/><linearGradient id="linear-gradient-17" x1="196.06" y1="165.88" x2="208.79" y2="154.32" gradientTransform="matrix(1, -0.07, 0.07, 1, -13.32, 14.88)" gradientUnits="userSpaceOnUse"><stop offset="0" stop-color="#cec4d6"/><stop offset="1" stop-color="#cec4d6" stop-opacity="0"/></linearGradient><linearGradient id="linear-gradient-18" x1="202.11" y1="160.87" x2="200.43" y2="149.52" gradientTransform="matrix(1, -0.07, 0.07, 1, -13.32, 14.88)" gradientUnits="userSpaceOnUse"><stop offset="0" stop-color="#34254c"/><stop offset="1" stop-color="#432a68"/></linearGradient><linearGradient id="linear-gradient-19" x1="209.67" y1="159.75" x2="207.99" y2="148.4" xlink:href="#linear-gradient-18"/><linearGradient id="linear-gradient-20" x1="204.76" y1="156.34" x2="203.94" y2="147.67" xlink:href="#linear-gradient-15"/><linearGradient id="linear-gradient-21" x1="215.29" y1="150" x2="218.24" y2="146.84" gradientTransform="matrix(1, -0.07, 0.07, 1, -13.32, 14.88)" gradientUnits="userSpaceOnUse"><stop offset="0" stop-color="#3492b7"/><stop offset="1" stop-color="#4cc8e5"/></linearGradient><linearGradient id="linear-gradient-22" x1="216.26" y1="154.95" x2="219.58" y2="154.95" gradientTransform="matrix(1, -0.07, 0.07, 1, -13.32, 14.88)" gradientUnits="userSpaceOnUse"><stop offset="0" stop-color="#d733db"/><stop offset="1" stop-color="#f43ef9"/></linearGradient><linearGradient id="linear-gradient-23" x1="216.84" y1="135.82" x2="222.97" y2="134.24" gradientTransform="matrix(1, -0.07, 0.07, 1, -13.32, 14.88)" gradientUnits="userSpaceOnUse"><stop offset="0" stop-color="#1e45a5"/><stop offset="1" stop-color="#2265c6"/></linearGradient><linearGradient id="linear-gradient-24" x1="191.05" y1="140.03" x2="202.61" y2="137.19" xlink:href="#linear-gradient"/><linearGradient id="linear-gradient-25" x1="193.62" y1="125.26" x2="224.15" y2="125.26" xlink:href="#linear-gradient"/><linearGradient id="linear-gradient-26" x1="189.96" y1="116.65" x2="186.59" y2="117.5" xlink:href="#linear-gradient-2"/><linearGradient id="linear-gradient-27" x1="224.16" y1="108.29" x2="227.11" y2="107.69" xlink:href="#linear-gradient-2"/><linearGradient id="linear-gradient-28" x1="197.5" y1="93.86" x2="207.27" y2="93.86" xlink:href="#linear-gradient-2"/><linearGradient id="linear-gradient-29" x1="191.5" y1="112.76" x2="224.61" y2="101.62" xlink:href="#linear-gradient-2"/><linearGradient id="linear-gradient-30" x1="200.04" y1="122.81" x2="208.24" y2="93.74" gradientTransform="matrix(1, -0.07, 0.07, 1, -13.32, 14.88)" gradientUnits="userSpaceOnUse"><stop offset="0" stop-color="#c8b8d3"/><stop offset="1" stop-color="#c8b8d3" stop-opacity="0"/></linearGradient><linearGradient id="linear-gradient-31" x1="199.47" y1="127.39" x2="216.81" y2="123.08" xlink:href="#linear-gradient-2"/><linearGradient id="linear-gradient-32" x1="189.18" y1="116.49" x2="229.24" y2="109.35" gradientTransform="matrix(1, -0.07, 0.07, 1, -13.32, 14.88)" gradientUnits="userSpaceOnUse"><stop offset="0" stop-color="#201d21"/><stop offset="1" stop-color="#524b56"/></linearGradient><linearGradient id="linear-gradient-33" x1="183.84" y1="115.48" x2="202.55" y2="114.44" gradientTransform="matrix(1, -0.07, 0.07, 1, -13.32, 14.88)" gradientUnits="userSpaceOnUse"><stop offset="0" stop-color="#111011"/><stop offset="1" stop-color="#111011" stop-opacity="0"/></linearGradient><linearGradient id="linear-gradient-34" x1="211.36" y1="99.38" x2="216.62" y2="114.84" gradientTransform="matrix(1, -0.07, 0.07, 1, -13.32, 14.88)" gradientUnits="userSpaceOnUse"><stop offset="0" stop-color="#ede7f2"/><stop offset="1" stop-color="#ede7f2" stop-opacity="0"/></linearGradient><linearGradient id="linear-gradient-35" x1="218.73" y1="111.35" x2="223.98" y2="118.61" xlink:href="#linear-gradient-34"/><linearGradient id="linear-gradient-36" x1="229.58" y1="185.81" x2="250.43" y2="185.81" xlink:href="#linear-gradient"/><linearGradient id="linear-gradient-37" x1="189.84" y1="200.06" x2="168.31" y2="186.58" xlink:href="#linear-gradient"/><linearGradient id="linear-gradient-38" x1="241.21" y1="152.05" x2="239" y2="132.66" xlink:href="#linear-gradient"/><linearGradient id="linear-gradient-39" x1="176.82" y1="150.06" x2="180.49" y2="150.06" xlink:href="#linear-gradient"/><linearGradient id="linear-gradient-40" x1="191.26" y1="139.64" x2="202.83" y2="136.8" xlink:href="#linear-gradient-15"/><linearGradient id="linear-gradient-41" x1="174.7" y1="150.69" x2="156.09" y2="132.24" xlink:href="#linear-gradient-2"/><linearGradient id="linear-gradient-42" x1="156.07" y1="128.21" x2="161.27" y2="128.21" xlink:href="#linear-gradient-2"/><linearGradient id="linear-gradient-43" x1="152.09" y1="135.09" x2="157.66" y2="135.09" xlink:href="#linear-gradient-2"/><linearGradient id="linear-gradient-44" x1="148.74" y1="144.26" x2="156.86" y2="144.26" xlink:href="#linear-gradient-2"/><linearGradient id="linear-gradient-45" x1="149.23" y1="152.48" x2="159.2" y2="152.48" xlink:href="#linear-gradient-2"/><linearGradient id="linear-gradient-46" x1="168.43" y1="132.04" x2="164.17" y2="147.81" xlink:href="#linear-gradient-3"/><linearGradient id="linear-gradient-47" x1="180.64" y1="148" x2="168.03" y2="138.95" xlink:href="#linear-gradient-3"/><linearGradient id="linear-gradient-48" x1="172.61" y1="130.08" x2="173.66" y2="124.3" xlink:href="#linear-gradient"/><linearGradient id="linear-gradient-49" x1="157.38" y1="129.49" x2="161.27" y2="129.49" xlink:href="#linear-gradient"/><linearGradient id="linear-gradient-50" x1="152.8" y1="135.7" x2="157.61" y2="135.7" xlink:href="#linear-gradient"/><linearGradient id="linear-gradient-51" x1="152.96" y1="145.55" x2="156.86" y2="145.55" xlink:href="#linear-gradient"/><linearGradient id="linear-gradient-52" x1="154.44" y1="153.27" x2="159.2" y2="153.27" xlink:href="#linear-gradient"/><linearGradient id="linear-gradient-53" x1="-509.85" y1="165.48" x2="-528.46" y2="147.03" gradientTransform="matrix(-0.99, 0.12, 0.12, 0.99, -287.38, 39.75)" xlink:href="#linear-gradient-2"/><linearGradient id="linear-gradient-54" x1="-528.48" y1="143" x2="-523.28" y2="143" gradientTransform="matrix(-0.99, 0.12, 0.12, 0.99, -287.38, 39.75)" xlink:href="#linear-gradient-2"/><linearGradient id="linear-gradient-55" x1="-532.46" y1="149.88" x2="-526.89" y2="149.88" gradientTransform="matrix(-0.99, 0.12, 0.12, 0.99, -287.38, 39.75)" xlink:href="#linear-gradient-2"/><linearGradient id="linear-gradient-56" x1="-535.8" y1="159.05" x2="-527.69" y2="159.05" gradientTransform="matrix(-0.99, 0.12, 0.12, 0.99, -287.38, 39.75)" xlink:href="#linear-gradient-2"/><linearGradient id="linear-gradient-57" x1="-535.32" y1="167.28" x2="-525.35" y2="167.28" gradientTransform="matrix(-0.99, 0.12, 0.12, 0.99, -287.38, 39.75)" xlink:href="#linear-gradient-2"/><linearGradient id="linear-gradient-58" x1="-516.12" y1="146.83" x2="-520.37" y2="162.6" gradientTransform="matrix(-0.99, 0.12, 0.12, 0.99, -287.38, 39.75)" xlink:href="#linear-gradient-3"/><linearGradient id="linear-gradient-59" x1="-503.91" y1="162.79" x2="-516.52" y2="153.75" gradientTransform="matrix(-0.99, 0.12, 0.12, 0.99, -287.38, 39.75)" xlink:href="#linear-gradient-3"/><linearGradient id="linear-gradient-60" x1="-511.94" y1="144.87" x2="-510.89" y2="139.09" gradientTransform="matrix(-0.99, 0.12, 0.12, 0.99, -287.38, 39.75)" xlink:href="#linear-gradient"/><linearGradient id="linear-gradient-61" x1="-527.17" y1="144.28" x2="-523.28" y2="144.28" gradientTransform="matrix(-0.99, 0.12, 0.12, 0.99, -287.38, 39.75)" xlink:href="#linear-gradient"/><linearGradient id="linear-gradient-62" x1="-531.75" y1="150.49" x2="-526.94" y2="150.49" gradientTransform="matrix(-0.99, 0.12, 0.12, 0.99, -287.38, 39.75)" xlink:href="#linear-gradient"/><linearGradient id="linear-gradient-63" x1="-531.59" y1="160.35" x2="-527.69" y2="160.35" gradientTransform="matrix(-0.99, 0.12, 0.12, 0.99, -287.38, 39.75)" xlink:href="#linear-gradient"/><linearGradient id="linear-gradient-64" x1="-530.11" y1="168.06" x2="-525.35" y2="168.06" gradientTransform="matrix(-0.99, 0.12, 0.12, 0.99, -287.38, 39.75)" xlink:href="#linear-gradient"/><linearGradient id="linear-gradient-65" x1="234.43" y1="222.34" x2="271.07" y2="222.34" xlink:href="#linear-gradient-2"/><linearGradient id="linear-gradient-66" x1="233.44" y1="246.83" x2="276.01" y2="211.35" gradientTransform="matrix(1, -0.07, 0.07, 1, -13.32, 14.88)" gradientUnits="userSpaceOnUse"><stop offset="0" stop-color="#bbaec4"/><stop offset="1" stop-color="#ded1e8"/></linearGradient><linearGradient id="linear-gradient-67" x1="-1574.65" y1="809.61" x2="-1538.01" y2="809.61" gradientTransform="matrix(-0.82, 0.57, 0.57, 0.82, -1569.11, 472.59)" xlink:href="#linear-gradient-2"/><linearGradient id="linear-gradient-68" x1="144.98" y1="248.15" x2="195.07" y2="241.06" xlink:href="#linear-gradient-66"/><linearGradient id="linear-gradient-69" x1="263.42" y1="148.04" x2="159.24" y2="220.03" gradientTransform="matrix(1, -0.07, 0.07, 1, -13.32, 14.88)" gradientUnits="userSpaceOnUse"><stop offset="0" stop-color="#04074a"/><stop offset="0.89" stop-opacity="0"/></linearGradient><linearGradient id="linear-gradient-70" x1="254.04" y1="144.43" x2="150.61" y2="241.42" gradientTransform="matrix(1, -0.07, 0.07, 1, -13.32, 14.88)" gradientUnits="userSpaceOnUse"><stop offset="0" stop-color="#04074a"/><stop offset="1" stop-color="#04074a"/></linearGradient></defs><g class="cls-1"><g id="Layer_2" data-name="Layer 2"><g id="OBJECTS"><path class="cls-2" d="M78.51,236.94V202.19H0V177.87L76,65h31.26V177.87h19.53v24.32H107.21v34.75Zm1-59.07,1.71-84-53.73,84Z"/><g class="cls-3"><path class="cls-2" d="M367.79,236.94V202.19H289.27V177.87L365.22,65h31.26V177.87H416v24.32H396.48v34.75Zm1-59.07,1.71-84-53.72,84Z"/></g><g class="cls-3"><path class="cls-2" d="M272.63,152.73q0,41.39-17.16,64.82T208.28,241q-30.4,0-47.32-23.66t-16.91-66.48q0-42.47,17.1-66.19t47.5-23.72q30.76,0,47.37,23.78T272.63,152.73Zm-64.84,63.93q17.82,0,26.8-16.55t9-49.52q0-32-8.86-48.81T208.89,85q-17.7,0-26.74,16.72t-9,49.34q0,31.68,9,48.63T207.79,216.66Z"/></g><path class="cls-2" d="M37.86,18.23a1.87,1.87,0,0,1-.49-1.38V2.53a1.94,1.94,0,0,1,.54-1.43,2.24,2.24,0,0,1,2.92,0,2,2,0,0,1,.53,1.43V15.47h6.55c1.24,0,1.86.54,1.86,1.63s-.62,1.62-1.86,1.62H39.24A1.87,1.87,0,0,1,37.86,18.23Z"/><path class="cls-2" d="M53.87,18.11a5.55,5.55,0,0,1-2.33-2.27,7,7,0,0,1-.82-3.47,7,7,0,0,1,.82-3.46,5.52,5.52,0,0,1,2.33-2.26,8.15,8.15,0,0,1,7,0A5.58,5.58,0,0,1,63.2,8.91,7.08,7.08,0,0,1,64,12.37a7.09,7.09,0,0,1-.82,3.47,5.6,5.6,0,0,1-2.33,2.27,8,8,0,0,1-7,0Zm6.31-5.74a4.21,4.21,0,0,0-.73-2.71,2.54,2.54,0,0,0-2.08-.89c-1.88,0-2.81,1.2-2.81,3.6S55.49,16,57.37,16,60.18,14.78,60.18,12.37Z"/><path class="cls-2" d="M68.9,18.11a5.6,5.6,0,0,1-2.33-2.27,7.09,7.09,0,0,1-.82-3.47,7.08,7.08,0,0,1,.82-3.46A5.58,5.58,0,0,1,68.9,6.65a8.15,8.15,0,0,1,7,0,5.52,5.52,0,0,1,2.33,2.26,7,7,0,0,1,.82,3.46,7,7,0,0,1-.82,3.47,5.55,5.55,0,0,1-2.33,2.27,8,8,0,0,1-7,0Zm6.31-5.74a4.28,4.28,0,0,0-.72-2.71,2.57,2.57,0,0,0-2.09-.89q-2.81,0-2.81,3.6T72.4,16C74.28,16,75.21,14.78,75.21,12.37Z"/><path class="cls-2" d="M93.83,17a1.82,1.82,0,0,1-.53,1.28,1.59,1.59,0,0,1-1.21.56,1.78,1.78,0,0,1-1.23-.53l-5.6-5.19V17a1.65,1.65,0,0,1-.55,1.35,2,2,0,0,1-1.37.46A2.08,2.08,0,0,1,82,18.38,1.65,1.65,0,0,1,81.4,17V2.38A1.67,1.67,0,0,1,82,1,2.13,2.13,0,0,1,83.34.56,2.1,2.1,0,0,1,84.71,1a1.67,1.67,0,0,1,.55,1.36v9.15l5.11-5a1.78,1.78,0,0,1,1.26-.56,1.75,1.75,0,0,1,1.25.53,1.67,1.67,0,0,1,.54,1.24A1.77,1.77,0,0,1,92.83,9l-3.4,3.25,3.81,3.52A1.76,1.76,0,0,1,93.83,17Z"/><path class="cls-2" d="M103.35,18.41a1.67,1.67,0,0,1-.55-1.36V2.38A1.67,1.67,0,0,1,103.35,1a2.13,2.13,0,0,1,1.39-.46,2.1,2.1,0,0,1,1.37.46,1.67,1.67,0,0,1,.55,1.36V17.05a1.67,1.67,0,0,1-.55,1.36,2,2,0,0,1-1.37.46A2.08,2.08,0,0,1,103.35,18.41Z"/><path class="cls-2" d="M110,3.34a1.83,1.83,0,0,1-.59-1.42A1.78,1.78,0,0,1,110,.51a2.76,2.76,0,0,1,3.21,0,1.77,1.77,0,0,1,.6,1.4,1.83,1.83,0,0,1-.59,1.42,2.75,2.75,0,0,1-3.22,0Zm.22,15.07a1.67,1.67,0,0,1-.55-1.36V7.72a1.61,1.61,0,0,1,.56-1.35,2.07,2.07,0,0,1,1.38-.46,2,2,0,0,1,1.37.46,1.66,1.66,0,0,1,.55,1.35v9.33a1.7,1.7,0,0,1-.55,1.36,2.3,2.3,0,0,1-2.76,0Z"/><path class="cls-2" d="M128.88,17a1.85,1.85,0,0,1-.52,1.28,1.61,1.61,0,0,1-1.22.56,1.79,1.79,0,0,1-1.23-.53l-5.6-5.19V17a1.65,1.65,0,0,1-.55,1.35,2,2,0,0,1-1.36.46,2.09,2.09,0,0,1-1.4-.46,1.68,1.68,0,0,1-.55-1.35V2.38A1.7,1.7,0,0,1,117,1a2.14,2.14,0,0,1,1.4-.46,2.07,2.07,0,0,1,1.36.46,1.67,1.67,0,0,1,.55,1.36v9.15l5.12-5a1.74,1.74,0,0,1,1.25-.56,1.72,1.72,0,0,1,1.25.53,1.67,1.67,0,0,1,.54,1.24A1.77,1.77,0,0,1,127.88,9l-3.4,3.25,3.81,3.52A1.76,1.76,0,0,1,128.88,17Z"/><path class="cls-2" d="M141.5,15.39a1.66,1.66,0,0,1,.32,1.05,1.42,1.42,0,0,1-.26.81,2.11,2.11,0,0,1-.72.62,9.25,9.25,0,0,1-2,.76,9,9,0,0,1-2.13.29,7.57,7.57,0,0,1-3.56-.79,5.51,5.51,0,0,1-2.34-2.27A7,7,0,0,1,130,12.4a7.08,7.08,0,0,1,.79-3.4A5.76,5.76,0,0,1,133,6.69a6.11,6.11,0,0,1,3.2-.83,5.86,5.86,0,0,1,3,.75,5.16,5.16,0,0,1,2,2.15,7.12,7.12,0,0,1,.71,3.26,1.2,1.2,0,0,1-.27.85.94.94,0,0,1-.75.3h-7.16a3.43,3.43,0,0,0,.92,2.18,3,3,0,0,0,2.12.68,4.51,4.51,0,0,0,1.33-.18,13.6,13.6,0,0,0,1.31-.48,6.11,6.11,0,0,1,.69-.27,1.77,1.77,0,0,1,.59-.12A1,1,0,0,1,141.5,15.39Zm-7-6.17a3.37,3.37,0,0,0-.79,2h4.94A3.42,3.42,0,0,0,138,9.2a2.14,2.14,0,0,0-1.7-.69A2.34,2.34,0,0,0,134.5,9.22Z"/><path class="cls-2" d="M160.57,6.21a1.71,1.71,0,0,1,.91-.25,2,2,0,0,1,1.3.47,1.42,1.42,0,0,1,.56,1.14,1.53,1.53,0,0,1-.18.71L156.29,22.4a1.88,1.88,0,0,1-.69.8,1.72,1.72,0,0,1-.92.27,1.87,1.87,0,0,1-1.26-.46,1.45,1.45,0,0,1-.53-1.12,1.68,1.68,0,0,1,.18-.77l1.68-3.5L150.2,8.28a1.72,1.72,0,0,1-.15-.69,1.45,1.45,0,0,1,.6-1.17A2.09,2.09,0,0,1,152,5.93a1.74,1.74,0,0,1,.94.27,1.85,1.85,0,0,1,.69.81l3.17,6.9,3.1-6.9A1.64,1.64,0,0,1,160.57,6.21Z"/><path class="cls-2" d="M167.28,18.11A5.6,5.6,0,0,1,165,15.84a7.09,7.09,0,0,1-.81-3.47A7.08,7.08,0,0,1,165,8.91a5.58,5.58,0,0,1,2.33-2.26,8.17,8.17,0,0,1,7,0,5.56,5.56,0,0,1,2.32,2.26,7,7,0,0,1,.82,3.46,7,7,0,0,1-.82,3.47,5.58,5.58,0,0,1-2.32,2.27,8,8,0,0,1-7,0Zm6.32-5.74a4.28,4.28,0,0,0-.73-2.71,2.56,2.56,0,0,0-2.09-.89q-2.81,0-2.81,3.6T170.78,16Q173.6,16,173.6,12.37Z"/><path class="cls-2" d="M191.35,6.39a1.74,1.74,0,0,1,.53,1.33V17.1a1.64,1.64,0,0,1-.55,1.28,2,2,0,0,1-1.42.49,1.82,1.82,0,0,1-1.31-.46,1.63,1.63,0,0,1-.48-1.23v-.25a4,4,0,0,1-1.55,1.48,4.53,4.53,0,0,1-2.16.51,4.49,4.49,0,0,1-3.54-1.32,5.81,5.81,0,0,1-1.16-4V7.72a1.73,1.73,0,0,1,.52-1.33,2,2,0,0,1,1.42-.48,2,2,0,0,1,1.41.48,1.76,1.76,0,0,1,.51,1.33v6a2.47,2.47,0,0,0,.47,1.67,1.87,1.87,0,0,0,1.45.53,2.35,2.35,0,0,0,1.82-.76,2.89,2.89,0,0,0,.71-2V7.72a1.76,1.76,0,0,1,.51-1.33,2,2,0,0,1,1.4-.48A2,2,0,0,1,191.35,6.39Z"/><path class="cls-2" d="M198.24,1.29a3.2,3.2,0,0,1,.62,2.11,6.5,6.5,0,0,1-1.92,4.65,1,1,0,0,1-.79.36,1.15,1.15,0,0,1-.77-.29.92.92,0,0,1-.33-.71,1,1,0,0,1,.28-.66,4.53,4.53,0,0,0,1.12-1.92,2.07,2.07,0,0,1-1.4-.64,2,2,0,0,1-.54-1.43,2.18,2.18,0,0,1,.6-1.57,2,2,0,0,1,1.5-.63A2,2,0,0,1,198.24,1.29Z"/><path class="cls-2" d="M210.2,6.25a1.54,1.54,0,0,1,.44,1.19,1.67,1.67,0,0,1-.41,1.25,2.28,2.28,0,0,1-1.45.51l-.77.08a2.88,2.88,0,0,0-2,.92,3,3,0,0,0-.63,2v4.88a1.67,1.67,0,0,1-.55,1.36,2,2,0,0,1-1.37.46,2.08,2.08,0,0,1-1.39-.46,1.67,1.67,0,0,1-.55-1.36V7.67a1.59,1.59,0,0,1,.56-1.3,2.07,2.07,0,0,1,1.36-.46,1.93,1.93,0,0,1,1.28.44,1.58,1.58,0,0,1,.51,1.24v.69a3.51,3.51,0,0,1,1.39-1.68,4.22,4.22,0,0,1,2-.67l.36,0A1.61,1.61,0,0,1,210.2,6.25Z"/><path class="cls-2" d="M222.39,15.39a1.66,1.66,0,0,1,.32,1.05,1.42,1.42,0,0,1-.26.81,2.16,2.16,0,0,1-.71.62,9.15,9.15,0,0,1-2,.76,9,9,0,0,1-2.12.29,7.58,7.58,0,0,1-3.57-.79,5.63,5.63,0,0,1-2.34-2.27,7,7,0,0,1-.82-3.46,7.2,7.2,0,0,1,.79-3.4,5.83,5.83,0,0,1,2.2-2.31,6.13,6.13,0,0,1,3.2-.83,5.86,5.86,0,0,1,3,.75,5.16,5.16,0,0,1,2,2.15,7,7,0,0,1,.72,3.26,1.2,1.2,0,0,1-.27.85,1,1,0,0,1-.76.3h-7.15a3.32,3.32,0,0,0,.92,2.18,3,3,0,0,0,2.12.68,4.6,4.6,0,0,0,1.33-.18c.39-.12.82-.28,1.3-.48a6.11,6.11,0,0,1,.69-.27,1.77,1.77,0,0,1,.59-.12A1,1,0,0,1,222.39,15.39Zm-7-6.17a3.25,3.25,0,0,0-.79,2h4.93a3.36,3.36,0,0,0-.68-2.05,2.14,2.14,0,0,0-1.7-.69A2.3,2.3,0,0,0,215.4,9.22Z"/><path class="cls-2" d="M232.79,18.41a1.69,1.69,0,0,1-.54-1.36V2.38A1.69,1.69,0,0,1,232.79,1a2.16,2.16,0,0,1,1.4-.46,2.12,2.12,0,0,1,1.37.46,1.7,1.7,0,0,1,.55,1.36V17.05a1.7,1.7,0,0,1-.55,1.36,2.06,2.06,0,0,1-1.37.46A2.11,2.11,0,0,1,232.79,18.41Z"/><path class="cls-2" d="M241.6,18.11a5.58,5.58,0,0,1-2.32-2.27,7,7,0,0,1-.82-3.47,7,7,0,0,1,.82-3.46,5.56,5.56,0,0,1,2.32-2.26,8.17,8.17,0,0,1,7,0,5.58,5.58,0,0,1,2.33,2.26,7.08,7.08,0,0,1,.81,3.46,7.09,7.09,0,0,1-.81,3.47,5.6,5.6,0,0,1-2.33,2.27,8,8,0,0,1-7,0Zm6.32-5.74a4.21,4.21,0,0,0-.73-2.71,2.55,2.55,0,0,0-2.08-.89q-2.82,0-2.82,3.6T245.11,16Q247.91,16,247.92,12.37Z"/><path class="cls-2" d="M256.15,18.66a6.2,6.2,0,0,1-2-.81,1.67,1.67,0,0,1-.59-.62,1.86,1.86,0,0,1-.2-.87,1.47,1.47,0,0,1,.33-1,1,1,0,0,1,.82-.4,1.92,1.92,0,0,1,.66.12,4.92,4.92,0,0,1,.69.27,9.72,9.72,0,0,0,1.41.52,6.41,6.41,0,0,0,1.71.19,2.87,2.87,0,0,0,1.4-.28.86.86,0,0,0,.5-.77.79.79,0,0,0-.22-.57,2,2,0,0,0-.81-.4c-.39-.12-1-.26-1.86-.43a7.08,7.08,0,0,1-3.28-1.31,3.06,3.06,0,0,1-1-2.43,3.34,3.34,0,0,1,.7-2.07,4.7,4.7,0,0,1,1.93-1.44,7,7,0,0,1,2.76-.52,8.19,8.19,0,0,1,2.15.28,6.71,6.71,0,0,1,1.87.79,1.58,1.58,0,0,1,.79,1.43,1.56,1.56,0,0,1-.33,1,1,1,0,0,1-.82.41,3,3,0,0,1-1.41-.46,7.24,7.24,0,0,0-1.16-.5,4.15,4.15,0,0,0-1.24-.16,2.33,2.33,0,0,0-1.25.29.92.92,0,0,0-.46.81.89.89,0,0,0,.53.82,9,9,0,0,0,2.07.56,11.5,11.5,0,0,1,2.69.8,3.22,3.22,0,0,1,1.4,1.19,3.45,3.45,0,0,1,.44,1.82,3.38,3.38,0,0,1-1.5,2.89,6.75,6.75,0,0,1-4,1.07A12.64,12.64,0,0,1,256.15,18.66Z"/><path class="cls-2" d="M274.53,16.44a1.42,1.42,0,0,1-.23,2.1,2.76,2.76,0,0,1-1.68.3l-.72-.05q-4.47-.36-4.47-4.68V9.05h-1a1.89,1.89,0,0,1-1.27-.37,1.32,1.32,0,0,1-.44-1.06,1.36,1.36,0,0,1,.44-1.09,1.94,1.94,0,0,1,1.27-.37h1v-2A1.72,1.72,0,0,1,268,2.84a2,2,0,0,1,1.42-.49,2,2,0,0,1,1.41.49,1.75,1.75,0,0,1,.51,1.33v2h1.79c1.16,0,1.74.49,1.74,1.46a1.32,1.32,0,0,1-.44,1.06,1.94,1.94,0,0,1-1.3.37h-1.79v5.34a1.74,1.74,0,0,0,.35,1.17,1.55,1.55,0,0,0,1.05.45l.72,0A1.77,1.77,0,0,1,274.53,16.44Z"/><path class="cls-2" d="M283.79,3.34a1.83,1.83,0,0,1-.59-1.42,1.78,1.78,0,0,1,.59-1.41A2.37,2.37,0,0,1,285.4,0a2.4,2.4,0,0,1,1.6.52,1.77,1.77,0,0,1,.6,1.4A1.83,1.83,0,0,1,287,3.34a2.75,2.75,0,0,1-3.22,0ZM284,18.41a1.67,1.67,0,0,1-.55-1.36V7.72A1.61,1.61,0,0,1,284,6.37a2.07,2.07,0,0,1,1.38-.46,2,2,0,0,1,1.37.46,1.66,1.66,0,0,1,.55,1.35v9.33a1.7,1.7,0,0,1-.55,1.36,2.3,2.3,0,0,1-2.76,0Z"/><path class="cls-2" d="M301.51,7.17a6.14,6.14,0,0,1,1.1,4v5.9a1.71,1.71,0,0,1-.53,1.33,2,2,0,0,1-1.42.49,1.93,1.93,0,0,1-1.4-.49,1.73,1.73,0,0,1-.51-1.33V11.33a2.93,2.93,0,0,0-.48-1.87,1.77,1.77,0,0,0-1.47-.59,2.55,2.55,0,0,0-1.93.77,2.86,2.86,0,0,0-.73,2v5.37a1.73,1.73,0,0,1-.51,1.33,1.93,1.93,0,0,1-1.4.49,2,2,0,0,1-1.42-.49,1.71,1.71,0,0,1-.53-1.33V7.67a1.66,1.66,0,0,1,.55-1.28,2.09,2.09,0,0,1,1.42-.48,1.77,1.77,0,0,1,1.29.47,1.56,1.56,0,0,1,.5,1.21V8a4.47,4.47,0,0,1,1.73-1.56,5.16,5.16,0,0,1,2.39-.53A4.12,4.12,0,0,1,301.51,7.17Z"/><path class="cls-2" d="M314.67,18.66a6.29,6.29,0,0,1-2-.81,1.57,1.57,0,0,1-.58-.62,1.75,1.75,0,0,1-.21-.87,1.47,1.47,0,0,1,.33-1A1,1,0,0,1,313,15a2,2,0,0,1,.67.12,6.11,6.11,0,0,1,.69.27,9.2,9.2,0,0,0,1.4.52,6.44,6.44,0,0,0,1.72.19,2.83,2.83,0,0,0,1.39-.28.86.86,0,0,0,.5-.77.75.75,0,0,0-.22-.57,1.89,1.89,0,0,0-.8-.4c-.4-.12-1-.26-1.87-.43a7,7,0,0,1-3.27-1.31,3,3,0,0,1-1-2.43,3.34,3.34,0,0,1,.7-2.07,4.7,4.7,0,0,1,1.93-1.44,7,7,0,0,1,2.76-.52,8.13,8.13,0,0,1,2.15.28,6.71,6.71,0,0,1,1.87.79,1.56,1.56,0,0,1,.79,1.43,1.56,1.56,0,0,1-.33,1,1,1,0,0,1-.82.41,3,3,0,0,1-1.41-.46,7.24,7.24,0,0,0-1.16-.5,4.15,4.15,0,0,0-1.24-.16,2.33,2.33,0,0,0-1.25.29.92.92,0,0,0-.46.81.9.9,0,0,0,.53.82,9,9,0,0,0,2.08.56A11.4,11.4,0,0,1,321,12a3.25,3.25,0,0,1,1.41,1.19,3.45,3.45,0,0,1,.43,1.82,3.38,3.38,0,0,1-1.5,2.89,6.75,6.75,0,0,1-4,1.07A12.64,12.64,0,0,1,314.67,18.66Z"/><path class="cls-2" d="M335.73,6.69a5.55,5.55,0,0,1,2,2.32,8,8,0,0,1,.7,3.44,7.78,7.78,0,0,1-.7,3.41,5.33,5.33,0,0,1-2,2.27,5.27,5.27,0,0,1-2.89.79,5,5,0,0,1-2.31-.52,3.86,3.86,0,0,1-1.6-1.47v4.83a1.55,1.55,0,0,1-.51,1.22,1.94,1.94,0,0,1-1.36.47,2.13,2.13,0,0,1-1.44-.49,1.61,1.61,0,0,1-.55-1.28v-14a1.76,1.76,0,0,1,.52-1.32,2,2,0,0,1,1.4-.49,1.89,1.89,0,0,1,1.38.49,1.79,1.79,0,0,1,.51,1.32v.21A3.9,3.9,0,0,1,330.5,6.4a5.4,5.4,0,0,1,5.23.29Zm-1.91,8.38a4,4,0,0,0,.75-2.62,4.29,4.29,0,0,0-.75-2.7,2.47,2.47,0,0,0-2.09-.95,2.53,2.53,0,0,0-2.1.93,4.22,4.22,0,0,0-.74,2.67,4.22,4.22,0,0,0,.74,2.65,2.85,2.85,0,0,0,4.19,0Z"/><path class="cls-2" d="M350.49,7.2a5.59,5.59,0,0,1,1.33,4.1v5.78a1.78,1.78,0,0,1-.48,1.32,1.9,1.9,0,0,1-1.36.47,1.78,1.78,0,0,1-1.31-.5,1.71,1.71,0,0,1-.5-1.29V16.9a3,3,0,0,1-1.28,1.48,4,4,0,0,1-2.1.54,5.16,5.16,0,0,1-2.31-.51A4.08,4.08,0,0,1,340.84,17a3.7,3.7,0,0,1-.6-2.05,3.2,3.2,0,0,1,.7-2.17,4.23,4.23,0,0,1,2.27-1.15,19.86,19.86,0,0,1,4.27-.36h.66v-.46a2.19,2.19,0,0,0-.47-1.56,2.15,2.15,0,0,0-1.57-.49,10.06,10.06,0,0,0-3.17.77,2.42,2.42,0,0,1-1,.28,1.12,1.12,0,0,1-.9-.39,1.58,1.58,0,0,1-.33-1,1.46,1.46,0,0,1,.23-.84,2.25,2.25,0,0,1,.74-.62,8.24,8.24,0,0,1,2.19-.76,11.76,11.76,0,0,1,2.54-.28A5.51,5.51,0,0,1,350.49,7.2Zm-3,8.31a2.81,2.81,0,0,0,.69-2v-.43h-.43a8.88,8.88,0,0,0-2.91.33,1.2,1.2,0,0,0-.83,1.2,1.49,1.49,0,0,0,.48,1.16,1.65,1.65,0,0,0,1.19.45A2.34,2.34,0,0,0,347.45,15.51Z"/><path class="cls-2" d="M357.11,18.13a5.43,5.43,0,0,1-2.23-2.25,7.18,7.18,0,0,1-.78-3.43A7,7,0,0,1,354.93,9a5.75,5.75,0,0,1,2.34-2.32,7.21,7.21,0,0,1,3.48-.81,7.67,7.67,0,0,1,2.05.28,6.77,6.77,0,0,1,1.86.79,1.56,1.56,0,0,1,.79,1.43,1.78,1.78,0,0,1-.31,1.09,1,1,0,0,1-.82.42,1.59,1.59,0,0,1-.62-.12c-.2-.07-.46-.19-.78-.34A9.39,9.39,0,0,0,362,9a2.85,2.85,0,0,0-1-.15,2.66,2.66,0,0,0-2.18.91,4,4,0,0,0-.76,2.64,4.06,4.06,0,0,0,.76,2.66A2.63,2.63,0,0,0,361,16a2.79,2.79,0,0,0,.95-.14,7.48,7.48,0,0,0,1-.44c.33-.16.58-.27.77-.35a1.54,1.54,0,0,1,.61-.11,1,1,0,0,1,.81.43,1.84,1.84,0,0,1,.32,1.1,1.52,1.52,0,0,1-.79,1.41,7,7,0,0,1-1.9.79,8.65,8.65,0,0,1-2.24.28A7,7,0,0,1,357.11,18.13Z"/><path class="cls-2" d="M378.25,15.39a1.66,1.66,0,0,1,.32,1.05,1.42,1.42,0,0,1-.26.81,2.11,2.11,0,0,1-.72.62,9.15,9.15,0,0,1-2,.76,8.82,8.82,0,0,1-2.12.29,7.64,7.64,0,0,1-3.57-.79,5.55,5.55,0,0,1-2.33-2.27,7,7,0,0,1-.82-3.46,7.08,7.08,0,0,1,.79-3.4,5.76,5.76,0,0,1,2.2-2.31,6.11,6.11,0,0,1,3.2-.83,5.86,5.86,0,0,1,3,.75,5.16,5.16,0,0,1,2,2.15,7.12,7.12,0,0,1,.71,3.26,1.2,1.2,0,0,1-.27.85,1,1,0,0,1-.75.3h-7.16a3.43,3.43,0,0,0,.92,2.18,3,3,0,0,0,2.12.68,4.51,4.51,0,0,0,1.33-.18c.39-.12.83-.28,1.31-.48a6.11,6.11,0,0,1,.69-.27,1.72,1.72,0,0,1,.59-.12A1,1,0,0,1,378.25,15.39Zm-7-6.17a3.37,3.37,0,0,0-.79,2h4.93a3.36,3.36,0,0,0-.67-2.05,2.14,2.14,0,0,0-1.7-.69A2.33,2.33,0,0,0,371.25,9.22Z"/><path class="cls-4" d="M181.85,138.83s-2.68-8.15-1.81-9.32,12.71-6.31,27.81-9.52,15.82-2,17-1.12,2.59,10.1,2.56,12S181.85,138.83,181.85,138.83Z"/><path class="cls-5" d="M253.41,200.61l-1,2.32L245,219.07l-7,15.47c-3.48-2.45-4.57-11.38-4.4-18.19a54.6,54.6,0,0,0-.77-11.33,14.84,14.84,0,0,1-5.14-4.54,26,26,0,0,1-2.07-3.22h0c-.45-.81-.68-1.34-.68-1.34-8.19.4-13.77-4.91-15.1-5.77s-3.79-.06-6.26,5.48c-2.22,5-7.85,7-8.95,7.37l-.19.05c-.24,1.34-.49,2.55-.75,3.64-2.09,8.83-4.64,10-4.64,10-.28,2.86,1.43,7,2,12.35a106.79,106.79,0,0,1,0,13.6l-7.37-4.58-14.42-8.95s-5.46-12.91-5.12-17.2a12,12,0,0,1,.73-3.25,15.23,15.23,0,0,1,1.39-2.83h0a12.33,12.33,0,0,1,1-1.39s0-.69,0-1.76c0-.48,0-1,.08-1.65a33.41,33.41,0,0,1,.62-4.54,11.22,11.22,0,0,1,.33-1.17,12.68,12.68,0,0,1,.84-1.9,13,13,0,0,1,1-1.55h0l0-.06,0,0h0v0l0-.05.08-.11.08-.1c.09-.13.19-.25.28-.36a11.93,11.93,0,0,1,1.11-1.22h0s.33-1.12.77-2.74c.34-1.25.74-2.8,1.12-4.34.87-3.54.78-4.8,3-6.53s2.77-3.14,4.07-4.18h0l.06-.05c.76-.59,2.14-1.46,3.21-2.12h0c.83-.52,1.47-.89,1.47-.89a14.11,14.11,0,0,1,.79-4.64,6.34,6.34,0,0,1-.64-1.49c-.21-.68-.34-1.29-.34-1.29-.37.25-.73.47-1.08.67h0c-3.82,2.17-6.53,1.42-6.53,1.42a14.93,14.93,0,0,1-3,.92,14.21,14.21,0,0,1-3.87.18A18.75,18.75,0,0,1,160,159.56l3.33-4.71,7.34-10.4a8.8,8.8,0,0,1,2.92,1.05h0a5.19,5.19,0,0,1,.6.42h0l.26.23a3.41,3.41,0,0,1,.62.78h0a.11.11,0,0,0,0,0h0a6.52,6.52,0,0,1,.1-.68,4.34,4.34,0,0,1,.43-1.25,2.12,2.12,0,0,1,.11-.21,3,3,0,0,1,.68-.75,1.86,1.86,0,0,1,.83-.4c0-.22,0-.42.07-.63,1-7.66,6-7.85,6-7.85,1-5.76,6.87-5.84,6.87-5.84s1.24.29,3.18.56h0a39.89,39.89,0,0,0,12.64-.06,17.51,17.51,0,0,0,9.71-5.4,10.57,10.57,0,0,0,1.05-1.34c4.83-1.12,8.56,5,8.56,5,2.76,0,5,1.84,6.25,3.22a12,12,0,0,1,1.18,1.49l.1-.12a8,8,0,0,1,1-1.06h0l.19-.15h0A10.1,10.1,0,0,1,236,130.3a10.64,10.64,0,0,1,2.79-.92l6.5,13.46,1.41,2.91a10.07,10.07,0,0,1-5.33,6.52,10.38,10.38,0,0,1-1.3.57,7.34,7.34,0,0,1-1,.31c-3.66.84-7.67-.79-10-2h0l-.09,0,0,0-.15-.08a18.17,18.17,0,0,1-1.57-.94,12.89,12.89,0,0,1,.54,2h0c0,.13.05.26.07.39a23.11,23.11,0,0,1,.11,6,19.24,19.24,0,0,1,1.13,4.57,4.38,4.38,0,0,1-.41,2.91l0,.06a3.37,3.37,0,0,1,.36-.19h0a6.78,6.78,0,0,1,1.28-.44l.26-.06h0a7.66,7.66,0,0,1,1.07-.15h0a13.5,13.5,0,0,1,5.63.83h0l.18.06.34.13c6,2.27,8.56,11.9,8.56,11.9a10.37,10.37,0,0,1,2.66,2.81,17.79,17.79,0,0,1,3.16,8.33C252.7,194.81,253.41,200.61,253.41,200.61Z"/><path class="cls-6" d="M170.83,164.83A18.75,18.75,0,0,1,160,159.56l3.33-4.71a13.72,13.72,0,0,0,7.12,5,10.38,10.38,0,0,0,3.32.29A16.47,16.47,0,0,1,170.83,164.83Z"/><path class="cls-7" d="M224.92,165.25l-5,7.59s-4.42,7.13-12.68,6.42-15.74-8.25-21.67-4.84-9.37,11.07-9.37,11.07l3.41-1s-6,4-7.06,6.46a1.15,1.15,0,0,0,.17,1.44l-3.61,1a13,13,0,0,1,1-1.55h0l0-.06,0,0h0v0l0-.05.08-.11.08-.1c.09-.13.19-.25.28-.36a11.93,11.93,0,0,1,1.11-1.22h0s.33-1.12.77-2.74c.34-1.25.74-2.8,1.12-4.34.87-3.54.78-4.8,3-6.53s2.77-3.14,4.07-4.18h0l.06-.05c.76-.59,2.14-1.46,3.21-2.12h0c.83-.52,1.47-.89,1.47-.89a14.11,14.11,0,0,1,.79-4.64,6.34,6.34,0,0,1-.64-1.49c-.21-.68-.34-1.29-.34-1.29-.37.25-.73.47-1.08.67h0c-3.82,2.17-6.53,1.42-6.53,1.42a14.93,14.93,0,0,1-3,.92,18,18,0,0,0,1.84-5.18,7.86,7.86,0,0,0,2.07-1.17,4.11,4.11,0,0,0,3.56,1.18c2.51-.17,7.42-2.41,7.39-5.09a17.71,17.71,0,0,0,12.05,12.14C211.63,169.64,220.76,166.8,224.92,165.25Z"/><path class="cls-8" d="M189.07,216.7c-.28,2.86,1.43,7,2,12.35a106.79,106.79,0,0,1,0,13.6l-7.37-4.58c1.71-4.68-.51-11.76-.74-17-.28-6.46,3.65-6.73,3.65-6.73a10.91,10.91,0,0,1,3.36-12.1,22.42,22.42,0,0,1,3.81,4.45C191.62,215.52,189.07,216.7,189.07,216.7Z"/><path class="cls-9" d="M228.73,190a26.09,26.09,0,0,0-3.09,7.24c-.45-.81-.68-1.34-.68-1.34-8.19.4-13.77-4.91-15.1-5.77s-3.79-.06-6.26,5.48c-2.22,5-7.85,7-8.95,7.37-.47-.61-1.25-1.59-2.29-2.73,1.93-1.91,3.55-4.65,6.21-8.88a14.48,14.48,0,0,1,10-7c3.43-.71,5,1.4,12.82,4.82A12.19,12.19,0,0,0,228.73,190Z"/><path class="cls-10" d="M245,219.07l-7,15.47c-3.48-2.45-4.57-11.38-4.4-18.19a54.6,54.6,0,0,0-.77-11.33,14.84,14.84,0,0,1-5.14-4.54,60.81,60.81,0,0,1,6.69-10.85c-1.12,4.57,1.09,8.1,3.7,11.24a46,46,0,0,0,.57,13.08C239.56,217.9,242.85,218.87,245,219.07Z"/><path class="cls-11" d="M253.41,200.61l-1,2.32c-2-2.21-3.7-6.88-4.61-13.31-1.23-8.77-6.63-10-6.63-10,2.14-7-2.75-12.65-3.69-13.65l.34.13c6,2.27,8.56,11.9,8.56,11.9a10.37,10.37,0,0,1,2.66,2.81,17.79,17.79,0,0,1,3.16,8.33C252.7,194.81,253.41,200.61,253.41,200.61Z"/><path class="cls-12" d="M187.09,134.32c.53,3.13,5.75,3.25,5.75,3.25-3.25,1-6,.72-9.31.16s-5.64,5.44-4.73,5.83a5.4,5.4,0,0,1,1.78,2c-2.61-1.25-3,0-2.18,2.83a24.18,24.18,0,0,1,.49,7.08c-.52-2.9-2.42-6.82-3.64-9.13a4.34,4.34,0,0,1,.43-1.25,2.12,2.12,0,0,1,.11-.21,3,3,0,0,1,.68-.75,1.86,1.86,0,0,1,.83-.4c0-.22,0-.42.07-.63,1-7.66,6-7.85,6-7.85,1-5.76,6.87-5.84,6.87-5.84s1.24.29,3.18.56C191,129.62,186.56,131.21,187.09,134.32Z"/><path class="cls-13" d="M232.92,132.67l-.12.59a10.6,10.6,0,0,0-8.37-3.06c-.61,2.73-5.32,3.21-5.32,3.21s3.66-2,3.19-4.33-6.47-4.46-6.47-4.46a.88.88,0,0,1-.05-.15,10.57,10.57,0,0,0,1.05-1.34c4.83-1.12,8.56,5,8.56,5,2.76,0,5,1.84,6.25,3.22a12,12,0,0,1,1.18,1.49Z"/><path class="cls-14" d="M171.11,196.75c-.11.27-3.69,8.89-6.29,11.91h0a15.23,15.23,0,0,1,1.39-2.83h0a12.33,12.33,0,0,1,1-1.39s0-.69,0-1.76c0-.48,0-1,.08-1.65A12.22,12.22,0,0,0,171.11,196.75Z"/><path class="cls-15" d="M236.36,148.67a26.31,26.31,0,0,0,2.67,4.48c-3.66.84-7.67-.79-10-2h0l-.09,0,0,0-.15-.08a18.17,18.17,0,0,1-1.57-.94,12.89,12.89,0,0,1,.54,2h0c0,.13.05.26.07.39-4.7-6.53-6.78-15.09-6.88-15.5.14.42,3.15,8.85,10.4,11.13A12.63,12.63,0,0,0,236.36,148.67Z"/><path class="cls-15" d="M246.67,145.75a10.07,10.07,0,0,1-5.33,6.52,25.39,25.39,0,0,1-2.51-4.12,12.71,12.71,0,0,0,6.43-5.31Z"/><path class="cls-16" d="M230.27,165.31h0s-6.72,3.77-7.79,5-2,3.06-7.17,4.63a35.69,35.69,0,0,1-4.36,1c-4.49.76-10.08.8-14.66-1.79a13,13,0,0,0-5.86-4.85,47.76,47.76,0,0,0,6.06.94l.57,0a8.05,8.05,0,0,0,.86,0,2.86,2.86,0,0,1,1-.86,15.9,15.9,0,0,1,3.81-.23h.73c1.07,0,2.26,0,3.5-.15s2.17-.22,3.14-.36l.73-.1c1.73-.25,3-.49,3.33-.51a2.62,2.62,0,0,1,1.82.69,1,1,0,0,1,.14.13l.48-.18c.58-.21,1.63-.59,2.91-1.1l.54-.21c.37-.15.76-.3,1.15-.47l.4-.16h0c1-.41,2-.85,3-1.31l.31-.15a27.73,27.73,0,0,0,4.13-2.3c0,.23,0,.45,0,.65a3.85,3.85,0,0,1-.45,2.26l0,.06a3.37,3.37,0,0,1,.36-.19h0A6.78,6.78,0,0,1,230.27,165.31Z"/><path class="cls-17" d="M229.1,163.63c-1.65,1-7.62,4.54-12.41,5.74l-.08,2.11c0-.22-.06-2.63-5-1.84a77,77,0,0,1-10.22.85s1.39,6.12,9.54,5.46c-4.49.76-10.08.8-14.66-1.79a13,13,0,0,0-5.86-4.85,47.76,47.76,0,0,0,6.06.94l.57,0a8.05,8.05,0,0,0,.86,0,2.86,2.86,0,0,1,1-.86,15.9,15.9,0,0,1,3.81-.23h.73c1.07,0,2.26,0,3.5-.15s2.17-.22,3.14-.36l.73-.1c1.73-.25,3-.49,3.33-.51a2.62,2.62,0,0,1,1.82.69,1,1,0,0,1,.14.13l.48-.18c.58-.21,1.63-.59,2.91-1.1l.54-.21c.37-.15.76-.3,1.15-.47l.4-.16h0c1-.41,2-.85,3-1.31l.31-.15a27.73,27.73,0,0,0,4.13-2.3C229.08,163.21,229.09,163.43,229.1,163.63Z"/><path class="cls-18" d="M203.5,169.16v6.56l-.74-6.55Z"/><path class="cls-18" d="M210.87,168.55l-.28,6.69-.45-6.59Z"/><path class="cls-18" d="M197.06,170.27l-.38,2.76-.19-2.78Z"/><path class="cls-18" d="M216.32,173.59c0-1.91-.2-3.87-.3-4.86a1,1,0,0,1,.14.13l.48-.18A19.43,19.43,0,0,1,216.32,173.59Z"/><path class="cls-18" d="M220.09,167.37l-.28,4.08-.26-3.87Z"/><path class="cls-18" d="M221.64,166.74l-.2,3-.2-2.86Z"/><path class="cls-18" d="M224.93,165.28l-.16,2.36-.15-2.21Z"/><path class="cls-19" d="M201.19,176.52c-3.41,1-7.43-6.93-14-6.32a21.66,21.66,0,0,0-6.41,1.91l.06-.05c.76-.59,2.14-1.46,3.21-2.12h0a12.91,12.91,0,0,1,5.75-.71C194.54,169.48,197.84,176.11,201.19,176.52Z"/><path class="cls-19" d="M237.26,165.93C228,164.76,219.2,174,219.2,174c3.82-4.94,7.19-7.15,9.45-8.13l.32-.13h0a10.69,10.69,0,0,1,1.54-.5h0a5,5,0,0,1,1.07-.15h0A13.5,13.5,0,0,1,237.26,165.93Z"/><polygon class="cls-19" points="170.08 191.87 170.08 191.87 170.08 191.87 170.08 191.87"/><path class="cls-19" d="M179.6,184.47a24.58,24.58,0,0,0-9.48,7.34,13.62,13.62,0,0,1,1.63-1.91s.33-1.12.77-2.74A36.62,36.62,0,0,1,179.6,184.47Z"/><path class="cls-19" d="M169.17,200.67a18.15,18.15,0,0,1-2.95,5.16,12.33,12.33,0,0,1,1-1.39s0-.69,0-1.76A6.8,6.8,0,0,0,169.17,200.67Z"/><path class="cls-20" d="M234,131.61c-.36.33-3.33,3.33-2.42,12.33,0,0-1.9-6.74.11-12.64a12,12,0,0,1,1.18,1.49A8,8,0,0,1,234,131.61Z"/><path class="cls-19" d="M234,131.59h0Z"/><path class="cls-19" d="M175.13,146.94a7.94,7.94,0,0,0-.88-1A3.51,3.51,0,0,1,175.13,146.94Z"/><path class="cls-19" d="M178.89,155.43a29.78,29.78,0,0,0-3.74-8.45h0a5,5,0,0,1,.53-1.93A35.31,35.31,0,0,1,178.89,155.43Z"/><path class="cls-19" d="M180.55,145a4.18,4.18,0,0,0-4.08-.95,1.86,1.86,0,0,1,.83-.4c0-.22,0-.42.07-.63A5,5,0,0,1,180.55,145Z"/><path class="cls-19" d="M189.68,158.49a39.46,39.46,0,0,1-4,4.43c-.21-.68-.34-1.29-.34-1.29C185,161.88,189.68,158.49,189.68,158.49Z"/><path class="cls-19" d="M227.21,150.08a12.89,12.89,0,0,1,.54,2,14.73,14.73,0,0,1-2.85-5.2,10.33,10.33,0,0,0,3.88,4.18A18.17,18.17,0,0,1,227.21,150.08Z"/><path class="cls-21" d="M194.27,162l1.5,2.23c-2.4,1.9-6.66,4.4-9,4.72s-3.79-.05-4-1.46c-.19-1.07,1.7-2.9,2.62-3.72l.48-.41.49,1s-2.78,2.86-.91,3.2l.19,0c2.23.18,8.61-5.82,8.61-5.82"/><path class="cls-22" d="M185.39,167.61h0s-1.7.14-1.63-1.13a6.53,6.53,0,0,1,1.58-2.7l.48-.41.49,1S183.52,167.27,185.39,167.61Z"/><path class="cls-21" d="M232.94,159.74a6.94,6.94,0,0,1-2.41,2c-3,1.7-9.15.31-9.15.31l-.7-3.27a16.84,16.84,0,0,0,7.87,1.83,7.66,7.66,0,0,0,2.1-.4c1.35-.5,1.6-1.34,1.23-1.88-.53-.75-3.92-.16-3.92-.16l.08-2.74a15.08,15.08,0,0,1,3,.48,3.37,3.37,0,0,1,1.89,1.09A2.29,2.29,0,0,1,232.94,159.74Z"/><path class="cls-22" d="M232.94,159.74a3.38,3.38,0,0,1-2.29.44c2.58-.77,1-3.35.35-4.3a3.37,3.37,0,0,1,1.89,1.09A2.29,2.29,0,0,1,232.94,159.74Z"/><path class="cls-23" d="M188.38,126.78s-4.67,2.08-4.12,12.48,9.14,15.81,9.14,15.81l.15,2.21s-6.62-2.08-10.35-10.52-.82-18.91,5-21Z"/><path class="cls-24" d="M216.61,119.67s6,2.27,8.6,10.47-2.05,13.9-6.7,17.53l1.5,3.54s8.2-5,9-13.74-5.26-16.87-11.34-20.25Z"/><path class="cls-25" d="M221.64,163.42c0,.48-4.16,1.19-5.76,1.49a179.07,179.07,0,0,1-19.8,2.47.54.54,0,0,1-.54-.37A93.26,93.26,0,0,1,192,150.88c-.2-1.62-.37-3.26-.5-4.9a1.08,1.08,0,0,1,.78-1.13,95.76,95.76,0,0,1,26-3.87,1.09,1.09,0,0,1,1.06.86C220.77,148.13,221.87,159.93,221.64,163.42Z"/><path class="cls-26" d="M221.38,162c0,.47-4.16,1.19-5.76,1.48A176.24,176.24,0,0,1,195.83,166a.52.52,0,0,1-.54-.36,91.63,91.63,0,0,1-3.51-16.13c-.21-1.63-.38-3.26-.51-4.91a1.09,1.09,0,0,1,.79-1.13,95.35,95.35,0,0,1,26-3.86,1.08,1.08,0,0,1,1.06.85C220.52,146.73,221.62,158.52,221.38,162Z"/><path class="cls-27" d="M215.62,163.5A176.09,176.09,0,0,1,196.1,166a.87.87,0,0,1-.89-.6,91.54,91.54,0,0,1-3.43-15.87C195.21,155.41,202.76,164.86,215.62,163.5Z"/><path class="cls-28" d="M195,147.86s1.42,9.22,2.88,14.5l1.88-.29s-1.58-9.22-2-14.88Z"/><path class="cls-29" d="M202.6,146.23s1.32,10,2.59,14.84l2.2-.31s-1.59-9.38-2-15Z"/><path class="cls-30" d="M199.26,148.19s.39,3.46.87,5.79l1.87-.28-.87-5.79A11.49,11.49,0,0,0,199.26,148.19Z"/><path class="cls-31" d="M215.18,147.5a1.66,1.66,0,1,1-1.77-1.53A1.66,1.66,0,0,1,215.18,147.5Z"/><path class="cls-32" d="M216.29,154.54a1.66,1.66,0,1,1-1.77-1.54A1.67,1.67,0,0,1,216.29,154.54Z"/><path class="cls-33" d="M219.63,134.08a3.39,3.39,0,1,1-3.61-3.15A3.38,3.38,0,0,1,219.63,134.08Z"/><path class="cls-34" d="M190.72,142.5c1.54-.36,5.31-1.12,9.42-2a1,1,0,0,0,.79-1.34l-.78-2.59a.79.79,0,0,0-.91-.62c-1.86.3-6.67.62-9.64,1.61-.37.13-.77.21-.55,1.43a23.19,23.19,0,0,0,.72,3A.82.82,0,0,0,190.72,142.5Z"/><path class="cls-35" d="M188.38,126.78a15.86,15.86,0,0,0,1.61,3.71s16.15,7.44,28.74-7.33a19.94,19.94,0,0,0-1.92-4.93S209.26,130.69,188.38,126.78Z"/><path class="cls-36" d="M182.24,111.89s-3.19,1.81-3.65,2.15c-1,.74,2.86,11.51,4.27,11.56a19.37,19.37,0,0,0,3.72-1Z"/><path class="cls-37" d="M181.2,115.13a.64.64,0,0,1-.59.67.63.63,0,0,1-.67-.59.62.62,0,0,1,.58-.67A.64.64,0,0,1,181.2,115.13Z"/><path class="cls-38" d="M214.69,101.55s3.64-.46,4.21-.46c1.24,0,4.6,10.93,3.49,11.82a19.39,19.39,0,0,1-3.58,1.42Z"/><path class="cls-37" d="M217.46,103.52a.64.64,0,0,0,.87.19.63.63,0,0,0,.19-.88.63.63,0,1,0-1.06.69Z"/><path class="cls-39" d="M190.52,96.84l-.39-1.29a14.75,14.75,0,0,1,9-2.83l.75,1.69Z"/><path class="cls-40" d="M219.21,116.33l-7.9,2.55-23.8,7.67c-9.22-10-7-26.22,5.14-31.17.57-.23,1.13-.43,1.69-.61h0C207.73,90.56,220.3,101.09,219.21,116.33Z"/><path class="cls-41" d="M211.31,118.88l-23.8,7.67c-9.22-10-7-26.22,5.14-31.17.57-.23,1.13-.43,1.69-.61-8.15,3.38-8.87,8.84-1.59,6.61s12.5-.83,12.5-.83Z"/><path class="cls-42" d="M219.21,116.33A19.48,19.48,0,0,1,204.9,129c-11.51,2.68-17.39-2.45-17.39-2.45Z"/><path class="cls-43" d="M219.21,116.33a24,24,0,0,1-6.87,7c-5.1,3.5-13.2,6.38-24.83,3.23-5.06-9.5-2.13-19.12,5-23.69a15.42,15.42,0,0,1,1.68-1C203,97.6,216.27,101,219.21,116.33Z"/><path class="cls-44" d="M212.34,123.32c-5.1,3.5-13.2,6.38-24.83,3.23-5.06-9.5-2.13-19.12,5-23.69-.91,2.24-2.11,6.74-1.12,13.62,1.5,10.34,8.65,13.42,20.93,6.85Z"/><path class="cls-45" d="M199.1,101.89s9.85-1.68,15.36,7.38a1.61,1.61,0,0,1-.45,2.16h0a1.6,1.6,0,0,1-2.32-.52A18.63,18.63,0,0,0,199.1,101.89Z"/><path class="cls-46" d="M216.09,113.49a1.26,1.26,0,1,1-1.73-.47A1.27,1.27,0,0,1,216.09,113.49Z"/><path class="cls-47" d="M236.45,187.15a18.1,18.1,0,0,1-2,2.48h0a60.81,60.81,0,0,0-6.69,10.85,26,26,0,0,1-2.07-3.22h0a26.09,26.09,0,0,1,3.09-7.24A28.38,28.38,0,0,0,236.45,187.15Z"/><path class="cls-48" d="M249,180.83a23.55,23.55,0,0,0-9.62,4,23.22,23.22,0,0,0-5,4.81,13.87,13.87,0,0,0,1.76-2.14,30.72,30.72,0,0,1-7.43,2.53,30.66,30.66,0,0,1,3-4.05c5.42-6.22,14.63-7.95,14.63-7.95A10.37,10.37,0,0,1,249,180.83Z"/><path class="cls-47" d="M194.65,203l-.19.05c-.24,1.34-.49,2.55-.75,3.64a22.42,22.42,0,0,0-3.81-4.45c.23-.18.46-.35.68-.5a12.41,12.41,0,0,0,1.78-1.47C193.4,201.41,194.18,202.39,194.65,203Z"/><path class="cls-49" d="M192.36,200.27a12.41,12.41,0,0,1-1.78,1.47c-.22.15-.45.32-.68.5a32.77,32.77,0,0,0-6.23-4.46,21.46,21.46,0,0,0-15.41-2.46,12.68,12.68,0,0,1,.84-1.9,13,13,0,0,1,1-1.55h0l0-.06,0,0h0v0l0-.05.08-.11.08-.1c.09-.13.19-.25.28-.36.55-.08,1.19-.15,1.9-.2a21,21,0,0,1,10.15,1.71A32.45,32.45,0,0,1,192.36,200.27Z"/><path class="cls-47" d="M241.34,152.27a10.38,10.38,0,0,1-1.3.57,7.34,7.34,0,0,1-1,.31,26.31,26.31,0,0,1-2.67-4.48,10.5,10.5,0,0,0,2.47-.52A25.39,25.39,0,0,0,241.34,152.27Z"/><path class="cls-50" d="M238.83,148.15a10.5,10.5,0,0,1-2.47.52,29.33,29.33,0,0,1-2.18-17.25h0A10.1,10.1,0,0,1,236,130.3a31.44,31.44,0,0,0,1.67,15.12C238,146.43,238.43,147.34,238.83,148.15Z"/><path class="cls-47" d="M176.54,159.47a18,18,0,0,1-1.84,5.18,14.21,14.21,0,0,1-3.87.18,16.47,16.47,0,0,0,3-4.74A9.4,9.4,0,0,0,176.54,159.47Z"/><path class="cls-51" d="M176.54,159.47a9.4,9.4,0,0,1-2.73.62c2.31-5.64,1.26-11.61.7-13.93a3.41,3.41,0,0,1,.62.78h0a.11.11,0,0,0,0,0h0a5,5,0,0,1,.53-1.93,2.12,2.12,0,0,1,.11-.21C177.35,151.26,177.22,156.05,176.54,159.47Z"/><path class="cls-52" d="M190.83,141.86c1.55-.36,5.48-1.26,9.42-2a.8.8,0,0,0,.63-.95l-.62-3a.79.79,0,0,0-.91-.62,75,75,0,0,0-9.66,2.14.81.81,0,0,0-.53.9,20.48,20.48,0,0,0,.73,3A.81.81,0,0,0,190.83,141.86Z"/><path class="cls-53" d="M165.66,158.55a12.53,12.53,0,0,1-4.49.87,12.08,12.08,0,0,1-5.33-1.15,1.45,1.45,0,0,1-.61.55h0a6.58,6.58,0,0,1-4.05.39c-4-.52-5.4-2.64-5.35-4.22a1.31,1.31,0,0,1,.68-1.05h0a8.67,8.67,0,0,1,3.61-.82c1.1-.08,1.39-.41.87-1.17l-.09-.1c-.67-.66-2.87-.68-4.12-1.35a4.52,4.52,0,0,1-2-4.13c0-.86.79-1.35,1.83-1.5a6.46,6.46,0,0,1,3.48.51c2.12,1,2.88.59,3-.52.06-.79-1.57-1.86-3.06-2.89a18,18,0,0,1-1.64-1.22c-1.51-1.32-.6-4.07,2.06-4.56a2.05,2.05,0,0,1,.78,0h0c2.07.4,3,4,4.19,3.46,1.39-.57.36-1.76-1.51-3.69-.25-.25-.5-.53-.74-.82-1.64-1.93-3.05-4.56-1.22-5.92a1.86,1.86,0,0,1,1.51-.3c2.32.42,5.63,3.92,7.56,8.21a19.55,19.55,0,0,0,1.67,3.13c.73,1,1.07.9,1.2.75a.6.6,0,0,0,.08-.13c.5-.74.81-5.5,1.07-8.53.05-.49.1-1,.18-1.41.37-2.34,1.15-4.1,2.58-4.46a3.24,3.24,0,0,1,.71-.11c1.25,0,1.91,1,2.2,3.39a9,9,0,0,1,.06,1.71c-.13,2.05-.81,3.87-.78,6.24,0,3,1.85,6.19,2.43,10.11S171.05,156.44,165.66,158.55Z"/><path class="cls-54" d="M156.36,133.42c-.2,1.69-2,1.82-3.25,1.72-.18-.21-.36-.43-.53-.66-1.38-1.83-2.32-4-.69-5.26a1.86,1.86,0,0,1,1.51-.3c.5.62,1.52,1.39,2.23,2.32A3,3,0,0,1,156.36,133.42Z"/><path class="cls-55" d="M153.16,139.8A2.79,2.79,0,0,1,150,142c-.51-.35-1-.7-1.42-1l-.22-.19c-1.51-1.32-.6-4.07,2.06-4.56a2.05,2.05,0,0,1,.78,0h0a12.44,12.44,0,0,1,1.54,2h0A2.25,2.25,0,0,1,153.16,139.8Z"/><path class="cls-56" d="M151.77,151.91a3.12,3.12,0,0,1-.87,0l-1.47-.37a11.65,11.65,0,0,1-2.65-1,4.52,4.52,0,0,1-2-4.13c0-.86.79-1.35,1.83-1.5a11.6,11.6,0,0,0,2.94,2c.29.11.6.23.9.37,1.22.55,2.41,1.34,2.59,2.08C153.24,150.23,153.18,151.65,151.77,151.91Z"/><path class="cls-57" d="M155.23,158.82h0a6,6,0,0,1-3.49.45l-.56-.06c-4-.52-5.4-2.64-5.35-4.22a1.31,1.31,0,0,1,.68-1.05h0c.09,0,1.69-.63,5.47,1l.33.14C155.94,156.59,156.82,157.68,155.23,158.82Z"/><path class="cls-58" d="M161.3,151.33c-.1-.19-3.11-6,1.33-11.07.73,1,1.07.9,1.2.75l.1.19S159.75,147.17,161.3,151.33Z"/><path class="cls-59" d="M165.66,158.55a12.53,12.53,0,0,1-4.49.87c9.69-2.21,8.46-11.29,7.31-14.1a17.52,17.52,0,0,1,.09-12.5c1.28-3.45.42-5.57-.12-6.45,1.25,0,1.91,1,2.2,3.39a9,9,0,0,1,.06,1.71c-.13,2.05-.81,3.87-.78,6.24,0,3,1.85,6.19,2.43,10.11S171.05,156.44,165.66,158.55Z"/><path class="cls-60" d="M170.71,131.47a5.62,5.62,0,0,1-5.55-.53c.37-2.34,1.15-4.1,2.58-4.46,1.71-.44,2.56.45,2.91,3.28A9,9,0,0,1,170.71,131.47Z"/><path class="cls-61" d="M156.36,133.42c-.2,1.69-3.38,2.52-3.78,1.06.32-3.13,2.1-3.35,3-3.24A3,3,0,0,1,156.36,133.42Z"/><path class="cls-62" d="M153.16,139.8c-.07,2.52-3.68,2.86-4.61,1.15a2.59,2.59,0,0,1,.4-2.6c1.57-2,3.67-.26,3.76-.18h0A3,3,0,0,1,153.16,139.8Z"/><path class="cls-63" d="M151.77,151.91a3.12,3.12,0,0,1-.87,0l-1.47-.37a4.24,4.24,0,0,1,1-4.28c1.22.55,2.41,1.34,2.59,2.08C153.24,150.23,153.18,151.65,151.77,151.91Z"/><path class="cls-64" d="M155.23,158.82h0a6,6,0,0,1-3.49.45,3.33,3.33,0,0,1-.42-2.6,2.94,2.94,0,0,1,1-1.64C155.94,156.59,156.82,157.68,155.23,158.82Z"/><path class="cls-65" d="M244.92,147.62a12.58,12.58,0,0,0,4.58,0,12,12,0,0,0,5-2.12,1.47,1.47,0,0,0,.7.43h0a6.68,6.68,0,0,0,4.06-.37c3.82-1.25,4.81-3.59,4.47-5.14a1.33,1.33,0,0,0-.86-.91h0a8.71,8.71,0,0,0-3.7-.13c-1.1.13-1.45-.15-1.07-1a.37.37,0,0,1,.07-.12c.53-.76,2.69-1.2,3.79-2.09a4.52,4.52,0,0,0,1.22-4.43c-.18-.84-1-1.17-2.08-1.14a6.57,6.57,0,0,0-3.32,1.15c-1.91,1.34-2.73,1.12-3,0-.21-.76,1.2-2.12,2.47-3.4a19.92,19.92,0,0,0,1.39-1.51c1.24-1.57-.18-4.1-2.88-4.1a2.06,2.06,0,0,0-.76.14h0c-2,.78-2.16,4.45-3.47,4.18-1.47-.3-.68-1.67.8-3.91.19-.29.39-.61.58-.94,1.24-2.2,2.14-5.05.09-6.05a1.84,1.84,0,0,0-1.54,0c-2.2.84-4.8,4.89-5.9,9.47a20,20,0,0,1-1.06,3.38c-.52,1.15-.88,1.09-1,1a.58.58,0,0,1-.1-.11c-.63-.64-1.82-5.26-2.64-8.18-.14-.47-.28-.93-.43-1.36-.81-2.23-1.9-3.81-3.38-3.9a2.72,2.72,0,0,0-.71,0c-1.23.21-1.69,1.31-1.54,3.73a10.06,10.06,0,0,0,.27,1.7c.5,2,1.52,3.65,1.92,6,.51,3-.66,6.43-.5,10.38S239.23,146.56,244.92,147.62Z"/><path class="cls-66" d="M249.39,121.2c.51,1.63,2.35,1.42,3.52,1.09.13-.24.27-.49.39-.74,1-2.06,1.53-4.42-.3-5.31a1.84,1.84,0,0,0-1.54,0c-.38.69-1.24,1.64-1.75,2.69A3,3,0,0,0,249.39,121.2Z"/><path class="cls-67" d="M253.72,126.88a2.79,2.79,0,0,0,3.54,1.55c.44-.45.86-.88,1.2-1.28l.19-.23c1.24-1.57-.18-4.1-2.88-4.1a2.06,2.06,0,0,0-.76.14h0a13,13,0,0,0-1.14,2.23h0A2.29,2.29,0,0,0,253.72,126.88Z"/><path class="cls-68" d="M257.33,138.52a3,3,0,0,0,.86-.22l1.37-.63a11.29,11.29,0,0,0,2.42-1.46,4.52,4.52,0,0,0,1.22-4.43c-.18-.84-1-1.17-2.08-1.14a11.26,11.26,0,0,1-2.53,2.48c-.26.16-.54.34-.8.53-1.1.77-2.13,1.76-2.17,2.53C255.58,137.14,255.9,138.53,257.33,138.52Z"/><path class="cls-69" d="M255.22,146h0a6.1,6.1,0,0,0,3.52-.21c.17,0,.35-.1.54-.16,3.82-1.25,4.81-3.59,4.47-5.14a1.33,1.33,0,0,0-.86-.91h0c-.1,0-1.78-.3-5.2,2l-.3.2C254.11,143.89,253.45,145.12,255.22,146Z"/><path class="cls-70" d="M247.87,139.72c.06-.21,1.94-6.49-3.37-10.63-.52,1.15-.88,1.09-1,1l-.06.2S248.61,135.34,247.87,139.72Z"/><path class="cls-71" d="M244.92,147.62a12.58,12.58,0,0,0,4.58,0c-9.93-.37-10.42-9.51-9.8-12.5a17.5,17.5,0,0,0-2.42-12.25c-1.89-3.16-1.45-5.4-1.08-6.36-1.23.21-1.69,1.31-1.54,3.73a10.06,10.06,0,0,0,.27,1.7c.5,2,1.52,3.65,1.92,6,.51,3-.66,6.43-.5,10.38S239.23,146.56,244.92,147.62Z"/><path class="cls-72" d="M234.93,122a5.61,5.61,0,0,0,5.36-1.56c-.81-2.23-1.9-3.81-3.38-3.9-1.76-.11-2.43.92-2.25,3.76A10.06,10.06,0,0,0,234.93,122Z"/><path class="cls-73" d="M249.39,121.2c.51,1.63,3.79,1.85,3.91.35-.9-3-2.68-2.91-3.59-2.62A3,3,0,0,0,249.39,121.2Z"/><path class="cls-74" d="M253.72,126.88c.54,2.46,4.14,2.12,4.74.27a2.59,2.59,0,0,0-.88-2.48c-1.9-1.64-3.65.43-3.72.52h0A3,3,0,0,0,253.72,126.88Z"/><path class="cls-75" d="M257.33,138.52a3,3,0,0,0,.86-.22l1.37-.63a4.25,4.25,0,0,0-1.77-4c-1.1.77-2.13,1.76-2.17,2.53C255.58,137.14,255.9,138.53,257.33,138.52Z"/><path class="cls-76" d="M255.22,146h0a6.1,6.1,0,0,0,3.52-.21,3.35,3.35,0,0,0-.07-2.63,3,3,0,0,0-1.29-1.43C254.11,143.89,253.45,145.12,255.22,146Z"/><path class="cls-19" d="M236.67,235.09s-1.37-4.55-1.06-6.94,14-35.73,31.87-35.69Z"/><path class="cls-77" d="M240.9,246.6s-4-3.19-4.36-13.68,21-47,34-39.4Z"/><path class="cls-78" d="M273.91,206.6l0,1.31a70.33,70.33,0,0,1-.66,7.06c-.06.41-.13.83-.2,1.26-.35,2.18-.83,4.46-1.43,6.81-.11.41-.21.82-.32,1.22a83,83,0,0,1-2.67,8.09c-.15.4-.31.79-.46,1.18-.95,2.34-2,4.71-3.24,7.09-.19.38-.39.76-.59,1.14-1.09,2.05-2.28,4.1-3.59,6.16l-.33.51h0c-.27.16-.54.32-.81.46-9.47,5-20.88-1.49-20.92-6.25v-.16a9.35,9.35,0,0,1,.17-1.27c.27-1.51.85-3.88,1.66-6.74.11-.4.23-.8.35-1.22.67-2.26,1.46-4.77,2.35-7.36.14-.39.27-.79.41-1.19.94-2.66,2-5.38,3.05-8,.16-.4.33-.79.49-1.17,1-2.27,2-4.42,3-6.33.21-.39.42-.77.63-1.13s.5-.87.76-1.27a52.51,52.51,0,0,1,3.29-4.75c.28-.36.57-.71.85-1.06a31.58,31.58,0,0,1,6.51-6.08c.49-.33,1-.62,1.45-.88,2.6-1.4,5-1.77,6.87-1,.93.37,1.76,1.71,2.37,3.84.12.44.24.92.35,1.43A39.18,39.18,0,0,1,273.91,206.6Z"/><path class="cls-79" d="M273.24,198.32l-11-3.38c.49-.33,1-.62,1.45-.88l9.24,2.83C273,197.33,273.13,197.81,273.24,198.32Z"/><path class="cls-79" d="M273.91,206.6l0,1.31-19-5.83c.28-.36.57-.71.85-1.06Z"/><path class="cls-79" d="M273.22,215c-.06.41-.13.83-.2,1.26l-22.86-7c.21-.39.42-.77.63-1.13Z"/><path class="cls-79" d="M271.59,223c-.11.41-.21.82-.32,1.22l-24.62-7.53c.16-.4.33-.79.49-1.17Z"/><path class="cls-79" d="M268.6,232.35c-.15.4-.31.79-.46,1.18l-24.95-7.64c.14-.39.27-.79.41-1.19Z"/><path class="cls-79" d="M264.9,240.62c-.19.38-.39.76-.59,1.14l-23.82-7.29c.11-.4.23-.8.35-1.22Z"/><path class="cls-79" d="M260.72,247.92l-.33.51h0c-.27.16-.54.32-.81.46l-20.92-6.41a9.35,9.35,0,0,1,.17-1.27Z"/><path class="cls-19" d="M193.31,243.89s-1.79-4.4-3.53-6.07-33.34-19-47.21-7.74Z"/><path class="cls-80" d="M197.26,255.5s1.1-5-5.21-13.38-45.89-23.41-51.21-9.29Z"/><path class="cls-81" d="M146.45,245.12c.27.33.55.66.85,1a66.19,66.19,0,0,0,4.94,5.07l.94.86c1.65,1.47,3.45,2.95,5.4,4.4l1,.75a82.61,82.61,0,0,0,7.16,4.62l1.1.62c2.2,1.23,4.52,2.4,7,3.49l1.18.51c2.13.91,4.35,1.76,6.66,2.53l.57.2h0l.92-.15c10.51-2.06,15.31-14.28,12.36-18l-.11-.12a12,12,0,0,0-.92-.88c-1.16-1-3.11-2.49-5.54-4.2l-1-.73c-1.94-1.34-4.14-2.79-6.45-4.25l-1.07-.67c-2.4-1.48-4.91-2.95-7.38-4.29l-1.12-.6c-2.18-1.15-4.32-2.19-6.33-3l-1.19-.48c-.48-.19-.94-.36-1.39-.52a53.68,53.68,0,0,0-5.55-1.62l-1.32-.29a31.58,31.58,0,0,0-8.89-.64,16.62,16.62,0,0,0-1.68.23c-2.9.53-5,1.74-6,3.52-.49.87-.29,2.44.57,4.48.18.42.39.87.63,1.33A38.35,38.35,0,0,0,146.45,245.12Z"/><path class="cls-79" d="M141.77,238.25l6.46-9.56a16.62,16.62,0,0,0-1.68.23l-5.41,8C141.32,237.34,141.53,237.79,141.77,238.25Z"/><path class="cls-79" d="M146.45,245.12c.27.33.55.66.85,1l11.14-16.5-1.32-.29Z"/><path class="cls-79" d="M152.24,251.19l.94.86,13.39-19.81-1.19-.48Z"/><path class="cls-79" d="M158.58,256.45l1,.75L174,235.87l-1.12-.6Z"/><path class="cls-79" d="M166.76,261.82l1.1.62,14.61-21.61-1.07-.67Z"/><path class="cls-79" d="M174.83,265.93l1.18.51L190,245.81l-1-.73Z"/><path class="cls-79" d="M182.67,269l.57.2h0l.92-.15,12.25-18.13a12,12,0,0,0-.92-.88Z"/><path class="cls-82" d="M273.24,198.32c-.11-.51-.23-1-.35-1.43-.61-2.13-1.44-3.47-2.37-3.84a5.65,5.65,0,0,0-2.11-.39,8,8,0,0,0-1-.15l0,0-.64,0a9.34,9.34,0,0,0-2.53.32c-4,.86-7.69,3.26-11.06,6.44-.24-2.05-.71-6.1-1.09-10.08a17.79,17.79,0,0,0-3.16-8.33,10.37,10.37,0,0,0-2.66-2.81s-2.55-9.63-8.56-11.9l-.34-.13-.18-.06h0a13.5,13.5,0,0,0-5.63-.83h0a5,5,0,0,0-1.07.15h0l-.26.06a6.78,6.78,0,0,0-1.28.44h0l-.32.13,0,0,0,0h0l0-.05v0l0-.06v0l0-.07v0l0-.08v0A3,3,0,0,0,229,165v0s0-.08,0-.13v0c0-.05,0-.09,0-.14v-.07s0-.09,0-.14v-.08a.81.81,0,0,0,0-.16v-.07a1.09,1.09,0,0,0,0-.18v0c0-.17,0-.34,0-.53s0-.23,0-.35-.05-.45-.09-.69a6.15,6.15,0,0,0,1.56-.58,6.94,6.94,0,0,0,2.41-2,2.29,2.29,0,0,0-.05-2.77,3.37,3.37,0,0,0-1.89-1.09,14.88,14.88,0,0,0-2.93-.48,19.83,19.83,0,0,0-.25-3c0-.13,0-.26-.07-.39h0a12.89,12.89,0,0,0-.54-2,18.17,18.17,0,0,0,1.57.94l.15.08,0,0,.09,0h0c2.29,1.19,6.3,2.82,10,2a7.34,7.34,0,0,0,1-.31,10.88,10.88,0,0,0,5.87-5.07,12.73,12.73,0,0,0,3.59-.13,12,12,0,0,0,5-2.12,1.47,1.47,0,0,0,.7.43h0l.13,0h0l.1,0h.06l.1,0h.06l.11,0H257c.17,0,.36,0,.56-.07h0l.3-.05.07,0,.24-.05.1,0a1.05,1.05,0,0,0,.24-.06l.11,0,.15,0,.12,0,.05,0,.37-.11c3.82-1.25,4.81-3.59,4.47-5.14a1.33,1.33,0,0,0-.86-.91h0a8.71,8.71,0,0,0-3.7-.13c-1.1.13-1.45-.15-1.07-1a.37.37,0,0,1,.07-.12l1.37-.63a11.29,11.29,0,0,0,2.42-1.46,4.52,4.52,0,0,0,1.22-4.43c-.18-.84-1-1.17-2.08-1.14a6.57,6.57,0,0,0-3.32,1.15c-1.91,1.34-2.73,1.12-3,0-.21-.76,1.2-2.12,2.47-3.4l.09-.09a2.06,2.06,0,0,0,1.11-1.19l0,0,.17-.21c1.24-1.57-.18-4.1-2.88-4.1a2.06,2.06,0,0,0-.76.14h0c-2,.78-2.16,4.45-3.47,4.18-1.47-.3-.68-1.67.8-3.91.19-.29.39-.61.58-.94,0,0,0-.07.05-.1a.91.91,0,0,0,.34-.64v0l.07-.16,0-.05a1,1,0,0,1,.07-.15l0,0a1,1,0,0,1,.07-.15v0c.07-.16.14-.32.2-.48l0-.08a.56.56,0,0,1,0-.12l0-.09a.49.49,0,0,1,0-.11l0-.1,0-.11,0-.1,0-.11s0-.06,0-.1l0-.1a.43.43,0,0,1,0-.11s0-.06,0-.1,0-.07,0-.11,0-.06,0-.09l0-.18a.28.28,0,0,1,0-.09.37.37,0,0,1,0-.11v-.1s0-.06,0-.1v-.18a.34.34,0,0,1,0-.1v-.09a.28.28,0,0,1,0-.09s0-.06,0-.09a.28.28,0,0,0,0-.09.31.31,0,0,0,0-.08.29.29,0,0,0,0-.09.24.24,0,0,0,0-.08s0-.06,0-.08a.49.49,0,0,1,0-.11l-.05-.11,0-.09,0-.07,0-.08,0-.06-.05-.08-.05-.06-.06-.07-.06-.06-.07-.06-.06-.06-.08-.06-.06,0-.1-.07-.06,0-.18-.1a1.84,1.84,0,0,0-1.54,0c-2.2.84-4.8,4.89-5.9,9.47a20,20,0,0,1-1.06,3.38c-.52,1.15-.88,1.09-1,1a.58.58,0,0,1-.1-.11c-.63-.64-1.82-5.26-2.64-8.18-.14-.47-.28-.93-.43-1.36-.81-2.23-1.9-3.81-3.38-3.9h-.73l-.18,0-.05,0a.52.52,0,0,0-.16.06h0l-.14.07,0,0-.14.1,0,0-.12.12,0,0a.64.64,0,0,0-.1.13l0,0a.56.56,0,0,0-.1.15.08.08,0,0,0,0,0l-.09.18,0,0c0,.06-.05.13-.07.2v0a1.17,1.17,0,0,0,0,.2l0,0c0,.08,0,.16,0,.24v.07l0,.27v.06a2.45,2.45,0,0,1,0,.27v.87c0,.13,0,.26,0,.39a10.06,10.06,0,0,0,.27,1.7c.5,2,1.52,3.65,1.92,6a10.21,10.21,0,0,1,.13,1.93c-.32.12-.66.26-1,.43a10.1,10.1,0,0,0-1.79,1.12h0l-.19.15h0l-.28.25-.1.09-.17.18-.14.15-.12.13-.17.19-.05.07-.1.12a12,12,0,0,0-1.18-1.49,10.58,10.58,0,0,0-4.08-2.84c-.16-.39-.34-.78-.53-1.16-.49-3.39-1.4-7.84-2.19-8.43s-1.33-1.28-5.8-.82l-.38-.25a12.87,12.87,0,0,0,.55-1.47c.06-.73.08-1.44.07-2.15a14.66,14.66,0,0,0,3.11-1.27c1.11-.89-2.25-11.82-3.49-11.82-.44,0-2.69.27-3.71.4a18.36,18.36,0,0,0-15.58-7.64l-.5-1.13a14.75,14.75,0,0,0-9,2.83l.28.93a17.81,17.81,0,0,0-8.58,15.65c-.88.49-2.88,1.64-3.24,1.91-1,.74,2.86,11.51,4.27,11.56a14.42,14.42,0,0,0,3.18-.81c.33.44.68.88,1.05,1.3-4.08,1.58-6.66,2.9-7.05,3.42-.53.72.28,4.09,1,6.57-1.43.94-3.09,2.9-3.65,7,0,.21-.05.41-.07.63a1.86,1.86,0,0,0-.83.4,3,3,0,0,0-.68.75,2.12,2.12,0,0,0-.11.21l-.12.23,0,.07a1.43,1.43,0,0,0-.08.22l0,.05-.09.3,0,.06-.06.29v0c0,.08,0,.16,0,.25s0,.05,0,.08,0,.21,0,.33h0a.11.11,0,0,1,0,0h0l0-.05,0,0,0-.05,0,0-.05-.06,0,0-.06-.08,0,0-.11-.12,0,0-.1-.1a.38.38,0,0,0-.09-.09l0,0,0,0-.08-.06-.16-.15h0a6.76,6.76,0,0,0-.6-.43h0a7.58,7.58,0,0,0-2-.83c-.74-2.55-1.67-4.81-1.71-7,0-2.37.65-4.19.78-6.24a9,9,0,0,0-.06-1.71c0-.14,0-.27-.05-.39v-.07l-.06-.35v-.07c0-.11-.05-.22-.07-.32v0c0-.1-.05-.18-.07-.27l0-.06a1.83,1.83,0,0,0-.08-.25l0-.07-.09-.23,0,0-.09-.19,0,0a1.18,1.18,0,0,0-.11-.19l0,0a.91.91,0,0,0-.11-.16l0,0-.12-.13,0,0-.12-.11,0,0-.14-.08,0,0-.16-.07h0l-.15,0h0l-.18,0H168l-.08,0-.17,0c-1.43.36-2.21,2.12-2.58,4.46-.08.45-.13.92-.18,1.41-.26,3-.57,7.79-1.07,8.53a.6.6,0,0,1-.08.13c-.13.15-.47.29-1.2-.75a19.55,19.55,0,0,1-1.67-3.13c-1.93-4.29-5.24-7.79-7.56-8.21a1.86,1.86,0,0,0-1.51.3l-.16.12s0,0,0,0l-.08.08-.06.06-.06.08,0,.06-.06.08,0,.07-.05.08,0,.07a.3.3,0,0,1,0,.08l0,.08,0,.08a.24.24,0,0,0,0,.08l0,.09a.5.5,0,0,0,0,.12.43.43,0,0,0,0,.11.28.28,0,0,0,0,.09s0,.05,0,.08v.27a.28.28,0,0,0,0,.09v.09s0,.06,0,.09a.28.28,0,0,0,0,.09.29.29,0,0,0,0,.09s0,.07,0,.1l0,.09a.29.29,0,0,0,0,.09l0,.11,0,.09a.84.84,0,0,0,0,.17l0,.09a.49.49,0,0,1,0,.11.36.36,0,0,1,0,.09.42.42,0,0,1,0,.1.93.93,0,0,1,.05.1l0,.09s0,.07.05.1l0,.09.06.1a.31.31,0,0,0,0,.1l.05.1.05.09.06.1,0,.07c.09.15.18.3.28.45l0,0,.1.14,0,.05.1.14,0,0,.1.15h0a.93.93,0,0,0,.46.58l.07.08c.24.29.49.57.74.82,1.87,1.93,2.9,3.12,1.51,3.69-1.23.51-2.12-3.06-4.19-3.46h0a2.05,2.05,0,0,0-.78,0c-2.66.49-3.57,3.24-2.06,4.56l.2.17,0,0a2.08,2.08,0,0,0,1.32,1l.1.07c1.49,1,3.12,2.1,3.06,2.89-.08,1.11-.84,1.48-3,.52a6.46,6.46,0,0,0-3.48-.51c-1,.15-1.81.64-1.83,1.5a4.52,4.52,0,0,0,2,4.13,11.65,11.65,0,0,0,2.65,1l1.47.37.09.1c.52.76.23,1.09-.87,1.17a8.67,8.67,0,0,0-3.61.82h0a1.31,1.31,0,0,0-.68,1.05c0,1.58,1.36,3.7,5.35,4.22l.38,0H152l.24,0H153l.56,0h.06l.19,0h.07l.16,0h.07l.14,0,.07,0,.13,0,.07,0,.11,0,.06,0,.11,0,0,0,.1,0,.05,0,.09,0,0,0,.12-.06h0a1.45,1.45,0,0,0,.61-.55,11.88,11.88,0,0,0,4.33,1.11l-.13.18a18.75,18.75,0,0,0,10.79,5.27,14.21,14.21,0,0,0,3.87-.18,14.93,14.93,0,0,0,3-.92s2.71.75,6.53-1.42h0c.35-.2.71-.42,1.08-.67,0,0,.13.61.34,1.29.05.15.1.31.16.46h0l-.07.06-.13.11-.28.24c-.92.82-2.81,2.65-2.62,3.72s1.18,1.59,2.77,1.57c-.14.08-.72.42-1.44.87h0c-1.07.66-2.45,1.53-3.21,2.12l-.06.05h0c-1.3,1-1.85,2.48-4.07,4.18s-2.16,3-3,6.53c-.38,1.54-.78,3.09-1.12,4.34-.44,1.62-.77,2.74-.77,2.74a14,14,0,0,0-1.51,1.74l0,.06,0,0-.06.09,0,.06h0a13,13,0,0,0-1,1.55,12.68,12.68,0,0,0-.84,1.9,11.22,11.22,0,0,0-.33,1.17,33.41,33.41,0,0,0-.62,4.54c0,.61-.07,1.17-.08,1.65,0,1.07,0,1.76,0,1.76a12.33,12.33,0,0,0-1,1.39h0a15.23,15.23,0,0,0-1.39,2.83,12,12,0,0,0-.73,3.25c-.3,3.77,3.87,14.16,4.9,16.65-8.23-2.4-17.24-3.5-23.75-.22a9.66,9.66,0,0,0-2.17,1.34c-.17.13-.34.25-.5.39h.05a8.8,8.8,0,0,0-.65.72,5.66,5.66,0,0,0-1.4,1.63c-.49.87-.29,2.44.57,4.48.18.42.39.87.63,1.33a38.35,38.35,0,0,0,4.68,6.87c.27.33.55.66.85,1a66.19,66.19,0,0,0,4.94,5.07l.94.86c1.65,1.47,3.45,2.95,5.4,4.4l1,.75a82.61,82.61,0,0,0,7.16,4.62l1.1.62c2.2,1.23,4.52,2.4,7,3.49l1.18.51c2.13.91,4.35,1.76,6.66,2.53l.57.2h0l.92-.15c7.68-1.51,12.31-8.44,13.1-13.52,0,0,0-.11,0-.32a6.71,6.71,0,0,0-.31-3.34,24.34,24.34,0,0,0-3.68-8,32.57,32.57,0,0,0-2.16-4.28,87.43,87.43,0,0,0-.13-10.56c-.52-5.33-2.23-9.49-2-12.35,0,0,2.55-1.18,4.64-10,.26-1.09.51-2.3.75-3.64l.19-.05c1.1-.36,6.73-2.38,8.95-7.37,2.47-5.54,4.94-6.34,6.26-5.48s6.91,6.17,15.1,5.77c0,0,.23.53.68,1.34h0a26,26,0,0,0,2.07,3.22,14.84,14.84,0,0,0,5.14,4.54,54.6,54.6,0,0,1,.77,11.33c-.12,5.12.46,11.44,2.24,15.31.33,1.81.81,3.43.81,3.43a24.52,24.52,0,0,0,2.13,8.49,6.88,6.88,0,0,0,1.86,2.8,2.92,2.92,0,0,0,.24.22c3.8,3.46,11.76,5.94,18.68,2.29.27-.14.54-.3.81-.46h0l.33-.51c1.31-2.06,2.5-4.11,3.59-6.16.2-.38.4-.76.59-1.14,1.22-2.38,2.29-4.75,3.24-7.09.15-.39.31-.78.46-1.18a83,83,0,0,0,2.67-8.09c.11-.4.21-.81.32-1.22.6-2.35,1.08-4.63,1.43-6.81.07-.43.14-.85.2-1.26a70.33,70.33,0,0,0,.66-7.06l0-1.31A39.18,39.18,0,0,0,273.24,198.32Zm-103.08-6.57h0Zm15.42-24.11-.19,0a.86.86,0,0,1-.41-.16.49.49,0,0,1-.16-.16.42.42,0,0,1,0-.1.54.54,0,0,1,0-.22,1.91,1.91,0,0,1,.24-.8l.16-.29c.12-.19.25-.37.38-.55l.09-.12.19-.24c.28-.33.5-.56.5-.56A13.76,13.76,0,0,0,185.58,167.64ZM228,158.13h0s3.39-.59,3.92.16c.37.54.12,1.38-1.23,1.88a7.71,7.71,0,0,1-2,.4c-.17-.65-.39-1.37-.68-2.17Z"/><path class="cls-83" d="M273.24,198.32c-.11-.51-.23-1-.35-1.43-.61-2.13-1.44-3.47-2.37-3.84a5.65,5.65,0,0,0-2.11-.39,8,8,0,0,0-1-.15l0,0-.64,0a9.34,9.34,0,0,0-2.53.32c-4,.86-7.69,3.26-11.06,6.44-.24-2.05-.71-6.1-1.09-10.08a17.79,17.79,0,0,0-3.16-8.33,10.37,10.37,0,0,0-2.66-2.81s-2.55-9.63-8.56-11.9l-.34-.13-.18-.06h0a13.5,13.5,0,0,0-5.63-.83h0a5,5,0,0,0-1.07.15h0l-.26.06a6.78,6.78,0,0,0-1.28.44h0l-.32.13,0,0,0,0h0l0-.05v0l0-.06v0l0-.07v0l0-.08v0A3,3,0,0,0,229,165v0s0-.08,0-.13v0c0-.05,0-.09,0-.14v-.07s0-.09,0-.14v-.08a.81.81,0,0,0,0-.16v-.07a1.09,1.09,0,0,0,0-.18v0c0-.17,0-.34,0-.53s0-.23,0-.35-.05-.45-.09-.69a6.15,6.15,0,0,0,1.56-.58,6.94,6.94,0,0,0,2.41-2,2.29,2.29,0,0,0-.05-2.77,3.37,3.37,0,0,0-1.89-1.09,14.88,14.88,0,0,0-2.93-.48,19.83,19.83,0,0,0-.25-3c0-.13,0-.26-.07-.39h0a12.89,12.89,0,0,0-.54-2,18.17,18.17,0,0,0,1.57.94l.15.08,0,0,.09,0h0c2.29,1.19,6.3,2.82,10,2a7.34,7.34,0,0,0,1-.31,10.88,10.88,0,0,0,5.87-5.07,12.73,12.73,0,0,0,3.59-.13,12,12,0,0,0,5-2.12,1.47,1.47,0,0,0,.7.43h0l.13,0h0l.1,0h.06l.1,0h.06l.11,0H257c.17,0,.36,0,.56-.07h0l.3-.05.07,0,.24-.05.1,0a1.05,1.05,0,0,0,.24-.06l.11,0,.15,0,.12,0,.05,0,.37-.11c3.82-1.25,4.81-3.59,4.47-5.14a1.33,1.33,0,0,0-.86-.91h0a8.71,8.71,0,0,0-3.7-.13c-1.1.13-1.45-.15-1.07-1a.37.37,0,0,1,.07-.12l1.37-.63a11.29,11.29,0,0,0,2.42-1.46,4.52,4.52,0,0,0,1.22-4.43c-.18-.84-1-1.17-2.08-1.14a6.57,6.57,0,0,0-3.32,1.15c-1.91,1.34-2.73,1.12-3,0-.21-.76,1.2-2.12,2.47-3.4l.09-.09a2.06,2.06,0,0,0,1.11-1.19l0,0,.17-.21c1.24-1.57-.18-4.1-2.88-4.1a2.06,2.06,0,0,0-.76.14h0c-2,.78-2.16,4.45-3.47,4.18-1.47-.3-.68-1.67.8-3.91.19-.29.39-.61.58-.94,0,0,0-.07.05-.1a.91.91,0,0,0,.34-.64v0l.07-.16,0-.05a1,1,0,0,1,.07-.15l0,0a1,1,0,0,1,.07-.15v0c.07-.16.14-.32.2-.48l0-.08a.56.56,0,0,1,0-.12l0-.09a.49.49,0,0,1,0-.11l0-.1,0-.11,0-.1,0-.11s0-.06,0-.1l0-.1a.43.43,0,0,1,0-.11s0-.06,0-.1,0-.07,0-.11,0-.06,0-.09l0-.18a.28.28,0,0,1,0-.09.37.37,0,0,1,0-.11v-.1s0-.06,0-.1v-.18a.34.34,0,0,1,0-.1v-.09a.28.28,0,0,1,0-.09s0-.06,0-.09a.28.28,0,0,0,0-.09.31.31,0,0,0,0-.08.29.29,0,0,0,0-.09.24.24,0,0,0,0-.08s0-.06,0-.08a.49.49,0,0,1,0-.11l-.05-.11,0-.09,0-.07,0-.08,0-.06-.05-.08-.05-.06-.06-.07-.06-.06-.07-.06-.06-.06-.08-.06-.06,0-.1-.07-.06,0-.18-.1a1.84,1.84,0,0,0-1.54,0c-2.2.84-4.8,4.89-5.9,9.47a20,20,0,0,1-1.06,3.38c-.52,1.15-.88,1.09-1,1a.58.58,0,0,1-.1-.11c-.63-.64-1.82-5.26-2.64-8.18-.14-.47-.28-.93-.43-1.36-.81-2.23-1.9-3.81-3.38-3.9h-.73l-.18,0-.05,0a.52.52,0,0,0-.16.06h0l-.14.07,0,0-.14.1,0,0-.12.12,0,0a.64.64,0,0,0-.1.13l0,0a.56.56,0,0,0-.1.15.08.08,0,0,0,0,0l-.09.18,0,0c0,.06-.05.13-.07.2v0a1.17,1.17,0,0,0,0,.2l0,0c0,.08,0,.16,0,.24v.07l0,.27v.06a2.45,2.45,0,0,1,0,.27v.87c0,.13,0,.26,0,.39a10.06,10.06,0,0,0,.27,1.7c.5,2,1.52,3.65,1.92,6a10.21,10.21,0,0,1,.13,1.93c-.32.12-.66.26-1,.43a10.1,10.1,0,0,0-1.79,1.12h0l-.19.15h0l-.28.25-.1.09-.17.18-.14.15-.12.13-.17.19-.05.07-.1.12a12,12,0,0,0-1.18-1.49,10.58,10.58,0,0,0-4.08-2.84c-.16-.39-.34-.78-.53-1.16-.49-3.39-1.4-7.84-2.19-8.43s-1.33-1.28-5.8-.82l-.38-.25a12.87,12.87,0,0,0,.55-1.47c.06-.73.08-1.44.07-2.15a14.66,14.66,0,0,0,3.11-1.27c1.11-.89-2.25-11.82-3.49-11.82-.44,0-2.69.27-3.71.4a18.36,18.36,0,0,0-15.58-7.64l-.5-1.13a14.75,14.75,0,0,0-9,2.83l.28.93a17.81,17.81,0,0,0-8.58,15.65c-.88.49-2.88,1.64-3.24,1.91-1,.74,2.86,11.51,4.27,11.56a14.42,14.42,0,0,0,3.18-.81c.33.44.68.88,1.05,1.3-4.08,1.58-6.66,2.9-7.05,3.42-.53.72.28,4.09,1,6.57-1.43.94-3.09,2.9-3.65,7,0,.21-.05.41-.07.63a1.86,1.86,0,0,0-.83.4,3,3,0,0,0-.68.75,2.12,2.12,0,0,0-.11.21l-.12.23,0,.07a1.43,1.43,0,0,0-.08.22l0,.05-.09.3,0,.06-.06.29v0c0,.08,0,.16,0,.25s0,.05,0,.08,0,.21,0,.33h0a.11.11,0,0,1,0,0h0l0-.05,0,0,0-.05,0,0-.05-.06,0,0-.06-.08,0,0-.11-.12,0,0-.1-.1a.38.38,0,0,0-.09-.09l0,0,0,0-.08-.06-.16-.15h0a6.76,6.76,0,0,0-.6-.43h0a7.58,7.58,0,0,0-2-.83c-.74-2.55-1.67-4.81-1.71-7,0-2.37.65-4.19.78-6.24a9,9,0,0,0-.06-1.71c0-.14,0-.27-.05-.39v-.07l-.06-.35v-.07c0-.11-.05-.22-.07-.32v0c0-.1-.05-.18-.07-.27l0-.06a1.83,1.83,0,0,0-.08-.25l0-.07-.09-.23,0,0-.09-.19,0,0a1.18,1.18,0,0,0-.11-.19l0,0a.91.91,0,0,0-.11-.16l0,0-.12-.13,0,0-.12-.11,0,0-.14-.08,0,0-.16-.07h0l-.15,0h0l-.18,0H168l-.08,0-.17,0c-1.43.36-2.21,2.12-2.58,4.46-.08.45-.13.92-.18,1.41-.26,3-.57,7.79-1.07,8.53a.6.6,0,0,1-.08.13c-.13.15-.47.29-1.2-.75a19.55,19.55,0,0,1-1.67-3.13c-1.93-4.29-5.24-7.79-7.56-8.21a1.86,1.86,0,0,0-1.51.3l-.16.12s0,0,0,0l-.08.08-.06.06-.06.08,0,.06-.06.08,0,.07-.05.08,0,.07a.3.3,0,0,1,0,.08l0,.08,0,.08a.24.24,0,0,0,0,.08l0,.09a.5.5,0,0,0,0,.12.43.43,0,0,0,0,.11.28.28,0,0,0,0,.09s0,.05,0,.08v.27a.28.28,0,0,0,0,.09v.09s0,.06,0,.09a.28.28,0,0,0,0,.09.29.29,0,0,0,0,.09s0,.07,0,.1l0,.09a.29.29,0,0,0,0,.09l0,.11,0,.09a.84.84,0,0,0,0,.17l0,.09a.49.49,0,0,1,0,.11.36.36,0,0,1,0,.09.42.42,0,0,1,0,.1.93.93,0,0,1,.05.1l0,.09s0,.07.05.1l0,.09.06.1a.31.31,0,0,0,0,.1l.05.1.05.09.06.1,0,.07c.09.15.18.3.28.45l0,0,.1.14,0,.05.1.14,0,0,.1.15h0a.93.93,0,0,0,.46.58l.07.08c.24.29.49.57.74.82,1.87,1.93,2.9,3.12,1.51,3.69-1.23.51-2.12-3.06-4.19-3.46h0a2.05,2.05,0,0,0-.78,0c-2.66.49-3.57,3.24-2.06,4.56l.2.17,0,0a2.08,2.08,0,0,0,1.32,1l.1.07c1.49,1,3.12,2.1,3.06,2.89-.08,1.11-.84,1.48-3,.52a6.46,6.46,0,0,0-3.48-.51c-1,.15-1.81.64-1.83,1.5a4.52,4.52,0,0,0,2,4.13,11.65,11.65,0,0,0,2.65,1l1.47.37.09.1c.52.76.23,1.09-.87,1.17a8.67,8.67,0,0,0-3.61.82h0a1.31,1.31,0,0,0-.68,1.05c0,1.58,1.36,3.7,5.35,4.22l.38,0H152l.24,0H153l.56,0h.06l.19,0h.07l.16,0h.07l.14,0,.07,0,.13,0,.07,0,.11,0,.06,0,.11,0,0,0,.1,0,.05,0,.09,0,0,0,.12-.06h0a1.45,1.45,0,0,0,.61-.55,11.88,11.88,0,0,0,4.33,1.11l-.13.18a18.75,18.75,0,0,0,10.79,5.27,14.21,14.21,0,0,0,3.87-.18,14.93,14.93,0,0,0,3-.92s2.71.75,6.53-1.42h0c.35-.2.71-.42,1.08-.67,0,0,.13.61.34,1.29.05.15.1.31.16.46h0l-.07.06-.13.11-.28.24c-.92.82-2.81,2.65-2.62,3.72s1.18,1.59,2.77,1.57c-.14.08-.72.42-1.44.87h0c-1.07.66-2.45,1.53-3.21,2.12l-.06.05h0c-1.3,1-1.85,2.48-4.07,4.18s-2.16,3-3,6.53c-.38,1.54-.78,3.09-1.12,4.34-.44,1.62-.77,2.74-.77,2.74a14,14,0,0,0-1.51,1.74l0,.06,0,0-.06.09,0,.06h0a13,13,0,0,0-1,1.55,12.68,12.68,0,0,0-.84,1.9,11.22,11.22,0,0,0-.33,1.17,33.41,33.41,0,0,0-.62,4.54c0,.61-.07,1.17-.08,1.65,0,1.07,0,1.76,0,1.76a12.33,12.33,0,0,0-1,1.39h0a15.23,15.23,0,0,0-1.39,2.83,12,12,0,0,0-.73,3.25c-.3,3.77,3.87,14.16,4.9,16.65-8.23-2.4-17.24-3.5-23.75-.22a9.66,9.66,0,0,0-2.17,1.34c-.17.13-.34.25-.5.39h.05a8.8,8.8,0,0,0-.65.72,5.66,5.66,0,0,0-1.4,1.63c-.49.87-.29,2.44.57,4.48.18.42.39.87.63,1.33a38.35,38.35,0,0,0,4.68,6.87c.27.33.55.66.85,1a66.19,66.19,0,0,0,4.94,5.07l.94.86c1.65,1.47,3.45,2.95,5.4,4.4l1,.75a82.61,82.61,0,0,0,7.16,4.62l1.1.62c2.2,1.23,4.52,2.4,7,3.49l1.18.51c2.13.91,4.35,1.76,6.66,2.53l.57.2h0l.92-.15c7.68-1.51,12.31-8.44,13.1-13.52,0,0,0-.11,0-.32a6.71,6.71,0,0,0-.31-3.34,24.34,24.34,0,0,0-3.68-8,32.57,32.57,0,0,0-2.16-4.28,87.43,87.43,0,0,0-.13-10.56c-.52-5.33-2.23-9.49-2-12.35,0,0,2.55-1.18,4.64-10,.26-1.09.51-2.3.75-3.64l.19-.05c1.1-.36,6.73-2.38,8.95-7.37,2.47-5.54,4.94-6.34,6.26-5.48s6.91,6.17,15.1,5.77c0,0,.23.53.68,1.34h0a26,26,0,0,0,2.07,3.22,14.84,14.84,0,0,0,5.14,4.54,54.6,54.6,0,0,1,.77,11.33c-.12,5.12.46,11.44,2.24,15.31.33,1.81.81,3.43.81,3.43a24.52,24.52,0,0,0,2.13,8.49,6.88,6.88,0,0,0,1.86,2.8,2.92,2.92,0,0,0,.24.22c3.8,3.46,11.76,5.94,18.68,2.29.27-.14.54-.3.81-.46h0l.33-.51c1.31-2.06,2.5-4.11,3.59-6.16.2-.38.4-.76.59-1.14,1.22-2.38,2.29-4.75,3.24-7.09.15-.39.31-.78.46-1.18a83,83,0,0,0,2.67-8.09c.11-.4.21-.81.32-1.22.6-2.35,1.08-4.63,1.43-6.81.07-.43.14-.85.2-1.26a70.33,70.33,0,0,0,.66-7.06l0-1.31A39.18,39.18,0,0,0,273.24,198.32Zm-103.08-6.57h0Zm15.42-24.11-.19,0a.86.86,0,0,1-.41-.16.49.49,0,0,1-.16-.16.42.42,0,0,1,0-.1.54.54,0,0,1,0-.22,1.91,1.91,0,0,1,.24-.8l.16-.29c.12-.19.25-.37.38-.55l.09-.12.19-.24c.28-.33.5-.56.5-.56A13.76,13.76,0,0,0,185.58,167.64ZM228,158.13h0s3.39-.59,3.92.16c.37.54.12,1.38-1.23,1.88a7.71,7.71,0,0,1-2,.4c-.17-.65-.39-1.37-.68-2.17Z"/></g></g></g></svg>