<svg xmlns="http://www.w3.org/2000/svg" viewBox="0 0 129.53 129.53"><defs><style>.cls-1{fill:#b9c4e1;}.cls-2{fill:#fff;}</style></defs><g id="Layer_2" data-name="Layer 2"><g id="OBJECTS"><circle class="cls-1" cx="64.76" cy="64.76" r="64.76" transform="translate(-26.83 64.76) rotate(-45)"/><ellipse class="cls-2" cx="64.76" cy="54.16" rx="25.19" ry="32.57"/><path class="cls-2" d="M64.76,89.14c-21.07,0-39.62,6.44-50.45,16.21a64.73,64.73,0,0,0,100.91,0C104.39,95.58,85.84,89.14,64.76,89.14Z"/><rect class="cls-2" x="52.33" y="64.76" width="24.88" height="41.13" rx="9.62"/><path class="cls-2" d="M43.05,55.67c1.47,4.22.88,8.26-1.3,9s-5.15-2-6.61-6.28-.89-8.26,1.3-9S41.58,51.44,43.05,55.67Z"/><ellipse class="cls-2" cx="90.43" cy="57.04" rx="8.1" ry="4.19" transform="translate(6.88 123.76) rotate(-70.85)"/><path class="cls-2" d="M42.71,55.53c-3.27-6-6.64-12.27-6.47-19.07s5.34-14,12.13-13.71a20.12,20.12,0,0,0,3.55.13c2.35-.33,4.09-2.25,6-3.66a16,16,0,0,1,15.24-1.93c3.06,1.25,5.65,3.43,8.64,4.85a19.45,19.45,0,0,0,17.75-.72A10.08,10.08,0,0,1,94.34,26a9.56,9.56,0,0,0,6.29-.18,10.84,10.84,0,0,1-5.52,4.82l5.17.35a13,13,0,0,1-6,4.63l4.06.13a9.55,9.55,0,0,1-6.68,6.1l2.62,0Q90,48.1,85.75,54.28a10.73,10.73,0,0,1-2.87,3.16,10.27,10.27,0,0,1-3.34,1.2A84,84,0,0,1,53.7,60.32c-3-.27-6-.75-8.38-2.57s-3.6-5.35-2-7.84"/><path class="cls-2" d="M48.52,95.3A72.44,72.44,0,0,1,49.8,85.12c1.69,1.93,4.55,2.17,7.12,2.27l11.64.48c.45,2.65.77,5.76-1.14,7.65a7.58,7.58,0,0,1-3.32,1.64,30.77,30.77,0,0,1-8,1.12c-3.22,0-7.06-.94-8.09-4L49,93.42"/><path class="cls-2" d="M81,95.3a72.43,72.43,0,0,0-1.27-10.18c-1.69,1.93-4.56,2.17-7.12,2.27L61,87.87c-.45,2.65-.76,5.76,1.15,7.65a7.54,7.54,0,0,0,3.31,1.64,30.84,30.84,0,0,0,8,1.12c3.22,0,7.06-.94,8.09-4l-1-.86"/></g></g></svg>