<svg xmlns="http://www.w3.org/2000/svg" viewBox="0 0 2794.95 1454.47"><defs><style>.cls-1{fill:#e5ecff;}.cls-2{fill:#ff9064;}.cls-3,.cls-5,.cls-6{fill:#b25834;}.cls-4,.cls-9{fill:#fff;}.cls-13,.cls-4,.cls-6{opacity:0.3;}.cls-17,.cls-21,.cls-5{opacity:0.6;}.cls-7{fill:#fbc343;}.cls-8{fill:#e49b31;}.cls-10{fill:#1f3c88;}.cls-11,.cls-13,.cls-17{fill:#102048;}.cls-12{fill:#3a6bea;}.cls-14{fill:#f9b384;}.cls-15{fill:#eb5d60;}.cls-15,.cls-19{opacity:0.4;}.cls-16{fill:#e28b6d;}.cls-18{fill:#7d69ed;}.cls-19,.cls-20,.cls-21{fill:#5b4dad;}</style></defs><g id="Layer_2" data-name="Layer 2"><g id="OBJECTS"><path class="cls-1" d="M163.62,1454.47C90.87,1375.16,42.3,1293.79,19.25,1212.62c-21.45-75.56-20.39-148.89,3.17-218C48.18,919.1,101,851,175.18,797.69,249.1,744.57,343,707,446.83,689.05l.84,4.83C344.6,711.7,251.36,749,178,801.67s-125.55,120-151,194.57c-23.23,68.11-24.27,140.46-3.09,215,22.83,80.42,71,161.12,143.26,239.87Z"/><path class="cls-1" d="M632.93,474.44l-4.06-2.74c.49-.73,50.22-73.94,134.91-149.75,49.76-44.54,101.68-81.27,154.34-109.18C984,177.85,1051.22,156.72,1117.9,150c163-16.5,323.84,51.86,478,203.18l-3.43,3.49c-153.06-150.23-312.54-218.13-474-201.8-66,6.67-132.62,27.6-197.92,62.2-52.3,27.71-103.89,64.2-153.35,108.46C682.88,400.92,633.42,473.71,632.93,474.44Z"/><path class="cls-1" d="M2658.17,1450.93l-4.05-2.76c66.93-98.29,109.76-202.68,127.28-310.28,16.11-98.91,9.62-198.83-18.79-289C2714.71,697,2607.7,579.66,2469,527.11l1.74-4.58c140.09,53.09,248.17,171.52,296.53,324.94,28.63,90.84,35.18,191.54,18.95,291.21C2768.6,1247,2725.51,1352.05,2658.17,1450.93Z"/><path class="cls-1" d="M2656.14,763.35c-92.4-232.78-293.27-392.79-546.91-322.22-73.45,20.44-180,86.3-254.58,102-200.29,42-293.66-139.54-435.27-235-179.46-121-420.6-146.26-606.64-23.88-70.62,46.46-130,109.82-172.86,182.64-10.87,18.49-100.18,223-72.62,231-227.08-66-420.15,91.91-467.71,310.75C71.41,1138,131.11,1337.63,229.14,1449.14H2532C2643.07,1305.77,2752,1004.94,2656.14,763.35Z"/><path class="cls-1" d="M1999.9,213.32c0,107.24-61.74,156.29-169,156.29S1613.78,247,1613.78,139.78C1613.77-106.3,1999.89,7.22,1999.9,213.32Z"/><path class="cls-1" d="M480,359.24C568.6,470.75,275,674.44,248.72,486.14c-10.64-76.09,56.13-140.94,132.91-150.31C433.44,329.5,464.59,339.86,480,359.24Z"/><path class="cls-2" d="M2118,1448.4H1330.92s-206.4-156.55-181.79-349.91c6.42-50.92,28.87-104.35,75.33-158.21,157.44-182.43,304.43-252,355.45-431.23,3.43-12.15,6.47-24.85,9-38.08l4.66-.15,207.28-6.08,5-.14s4.8,16.42,17.84,44c23.62,50,74.16,137,171.64,229.68a1049.13,1049.13,0,0,0,138.81,110.58C2361.39,1001.15,2383.1,1393.16,2118,1448.4Z"/><path class="cls-2" d="M1876.25,251l-78.57,222.81L1595.74,476l-88.52-215c-5.83-14.16,7.85-28.57,21.23-22.3l0,.05,70.14,32.79,2.64-2.4,58.57-53.62A15.22,15.22,0,0,1,1674.7,212a15.82,15.82,0,0,1,8.19,5.69l23.23,30.82.35-.44s0,0,0,0l51.22-60.77c8.53-10.15,24.27-6.13,27.5,7.06l10.93,44.89,62.45-10.93a14.84,14.84,0,0,1,2.89-.24C1872.23,228.16,1880.22,239.72,1876.25,251Z"/><rect class="cls-3" x="1546.77" y="432.69" width="307.23" height="76.54" rx="30.22" transform="translate(3400.77 941.92) rotate(180)"/><path class="cls-4" d="M1713,1075.3q-.24-24-1-48.63c-61.83,8-122,8-154.69,1,13-23.44,25.52-46.58,37.34-69.48,32.57,8.1,82.56,12.33,136.9,4.83,47.73-6.61,76.69-21.82,71.11-42.11-5.06-19.38-32-28.79-85.08-35.55-80.36-9.1-153.48-50.44-128.2-104.81,21.24-49,71.36-77.1,103.28-93.72a412,412,0,0,1-4.23-47.14l29.29-.56q5.9,22.8,11.86,45.81c19.79-1.83,64.76.78,80.45,7.3,3.65,20.43.19,41.19-10,62.34-14.31-4.12-37.2-13.51-67.11-9.31-27.19,3.79-37.18,20.09-37.08,35.12.34,17.68,18.61,26.68,71.13,37.43,72.48,13.57,120.68,37.85,146,81.74,25.83,43.25-8.92,84.39-112.24,110.05q4.15,25.18,7.2,49.53Q1760.8,1067,1713,1075.3Z"/><path class="cls-2" d="M1593.44,318.29c.83,1.28,1.08,1.86.59,1.62C1593.69,319.76,1593.49,319.17,1593.44,318.29Z"/><path class="cls-5" d="M1592.13,338.57c-18.2-22.84-62.15-98.07-63.63-99.83l70.14,32.79s7,32.73,4.11,47C1601.67,324,1595.56,342.87,1592.13,338.57Z"/><path class="cls-6" d="M2118,1448.4H1330.92s-206.4-156.55-181.79-349.91c83.57,112.78,278,277.77,682.42,225.81a215.08,215.08,0,0,1-7-55.29c0-60,35-109.69,78.62-146.21,36.27-30.33,88.71-64.84,89.25-117.82,0-.49,2.55-229.1,2.89-266.69a1049.13,1049.13,0,0,0,138.81,110.58C2361.39,1001.15,2383.1,1393.16,2118,1448.4Z"/><path class="cls-5" d="M1706.47,248.1c-11.77,23.24-39.41,102.13-43.68,95.37-5-8,9.37-109.87,11.91-131.44a15.82,15.82,0,0,1,8.19,5.69l23.23,30.82Z"/><path class="cls-5" d="M1834.75,232.78c-22.74,35.48-28.88,80.36-35.94,82.33-11,3-2.65-75.88-2.65-75.88S1830,233.26,1834.75,232.78Z"/><rect class="cls-7" x="2061.58" y="733.1" width="346.23" height="716.04"/><rect class="cls-8" x="2250.96" y="825.44" width="154.39" height="4.9"/><rect class="cls-8" x="2253.41" y="1046" width="154.39" height="4.9"/><rect class="cls-8" x="2148.03" y="1175.89" width="259.77" height="4.9"/><rect class="cls-8" x="2062.26" y="930.82" width="154.39" height="4.9"/><rect class="cls-8" x="2062.26" y="1308.22" width="276.93" height="4.9"/><circle class="cls-8" cx="2095.35" cy="1265.35" r="183.79" transform="translate(-281.02 1852.24) rotate(-45)"/><circle class="cls-7" cx="2057.77" cy="1265.35" r="183.79" transform="translate(-292.03 1825.67) rotate(-45)"/><path class="cls-8" d="M2057.77,1122.06a143.29,143.29,0,1,1-143.29,143.29,143.29,143.29,0,0,1,143.29-143.29m0-7.35a150.64,150.64,0,1,0,106.52,44.12,149.66,149.66,0,0,0-106.52-44.12Z"/><path class="cls-9" d="M2044.32,1368.83v-24.08c-17-.76-33.48-5.33-43.12-10.9l7.62-29.68c10.66,5.82,25.61,11.15,42.11,11.15,14.46,0,24.35-5.58,24.35-15.72,0-9.64-8.11-15.74-26.89-22.08-27.14-9.13-45.67-21.81-45.67-46.41,0-22.33,15.74-39.82,42.88-45.15v-24.1h24.85v22.33c17,.76,28.42,4.29,36.79,8.36l-7.36,28.67c-6.59-2.79-18.26-8.64-36.54-8.64-16.48,0-21.81,7.11-21.81,14.22,0,8.36,8.89,13.69,30.45,21.81,30.17,10.65,42.36,24.6,42.36,47.44,0,22.57-16,41.84-45.15,46.93v25.85Z"/><path class="cls-7" d="M851.71,726.58l-22.15,56.36-156.45-47-124.6-37.45,35.88-103s23.23,13.43,57,31.86C702.52,660.8,798.09,710.7,851.71,726.58Z"/><path class="cls-8" d="M673.11,735.94l-124.6-37.45,35.88-103s23.23,13.43,57,31.86C651.3,650,664.73,687.12,673.11,735.94Z"/><path class="cls-10" d="M2243.61,609.78s220.8-39.92,253,1.05c27.71,35.27,42.83,74.32,17.64,264.53C2456.22,730.25,2363.8,645.62,2243.61,609.78Z"/><path class="cls-10" d="M2540.14,1011.69s-37.57,50.65-129.88,34.31l41.66-68.62Z"/><polygon class="cls-11" points="2436.46 991.67 2445.57 1133.98 2606.91 1123 2522.86 1059.32 2514.78 982.2 2436.46 991.67"/><path class="cls-12" d="M2540.14,1011.69c-72.29,0-129.88,34.31-129.88,34.31L2387,747s-176.45-9.81-241.39-13.48-35.53-166.65-35.53-166.65l118,20.73,63.33,11.13,124.69,22.74a99,99,0,0,1,80.23,83.37Z"/><path class="cls-10" d="M2486.56,1019.61a1.82,1.82,0,0,1-1.83-1.75c-7.13-156.29-44-300.7-57.65-319.82-15.7-22-77.16-25.37-155-29.67-25.58-1.42-52-2.88-80.31-5.11-13.94-1.09-23.17-17-27.43-47.39a289.74,289.74,0,0,1-2.32-44.29,1.87,1.87,0,0,1,1.9-1.77,1.83,1.83,0,0,1,1.77,1.9,286.31,286.31,0,0,0,2.3,43.69c2.74,19.52,9.15,43,24.07,44.2,28.23,2.22,54.66,3.68,80.22,5.1,81.88,4.53,141,7.8,157.76,31.2,16,22.35,51.57,173.61,58.33,321.79a1.84,1.84,0,0,1-1.75,1.92Z"/><path class="cls-13" d="M2416.09,621.49c-162,44.36-206.79-24.8-206.79-24.8l18.77-9.07,63.33,11.13Z"/><path class="cls-10" d="M2407,1013.53a1.84,1.84,0,0,1-.87-3.46c.62-.33,62.51-32.87,129.17-31.26a1.84,1.84,0,0,1-.05,3.68h0c-65.7-1.64-126.74,30.5-127.35,30.82A1.78,1.78,0,0,1,2407,1013.53Z"/><rect class="cls-9" x="2491.5" y="1069.82" width="36.7" height="4.9" transform="translate(-25.54 2082.65) rotate(-44.86)"/><polygon class="cls-14" points="2260.37 283 2257.87 293.44 2247.87 335.1 2239.93 368.38 2177.83 346.33 2217.48 267.9 2260.37 283"/><path class="cls-11" d="M2257.87,293.44l-8.29,34.81c-23.08-21.42-14.85-44-14.85-44Z"/><path class="cls-14" d="M2313.45,250.75s-13.07,65.35-36.35,64.54-51-37.17-51-37.17l19.19-54.74,47.38,4.09Z"/><circle class="cls-14" cx="2304.77" cy="283.83" r="7.35" transform="translate(1656.25 2513.62) rotate(-80.8)"/><path class="cls-11" d="M2311,252.47c4.47,3.59,8,6.56,10.56,8,20.52,11.31,17-21,15.1-31.8-6.05-34.88-48.2-49.45-78.55-53.26-3.59-.45-7.27-.75-10.77.11-9.27,2.29-11.75,13.44-15.1,21-5.68,12.9-21.06,9.1-31.73,14.22-5.28,2.53-9.63,8.42-7.94,14,1.3,4.31,5.72,6.89,6.93,11.16,2.19,7.69-7.26,15.67-9.08,23.1-4.14,16.85,12.38,31.3,28.32,30.82,9.82-.3,19.23-5.23,25.76-12.56a46.77,46.77,0,0,0,9.49-17.16c1.95-6.22,7.23-1,9.69-7.4C2277.92,215.62,2298.38,242.27,2311,252.47Z"/><path class="cls-11" d="M2185.36,163.36c-8.48.56-18,3.35-21.63,11-2.3,4.9-1.7,10.88-4.51,15.5-4.85,8-16.29,7.54-25.57,6.67-6.79-.63-13.73-.95-20.34.73s-12.92,5.64-16,11.72-2.16,14.37,3.16,18.65c2.35,1.89,5.49,3.08,6.84,5.79,1.52,3.06,0,6.82-2.22,9.41s-5.17,4.52-7.26,7.22a15.33,15.33,0,0,0,15.94,24.22c7.52-1.94,13.2-9.42,21-9.55,7.29-.13,13.33,6.37,20.6,6.65,6.27.25,11.75-4.17,15.79-9s7.45-10.34,12.68-13.8c10.1-6.68,25.07-4.35,33.37-13.16,7.07-7.5,7.33-18.39,15.19-25.61,7-6.43,14.88-11.76,10.83-22.5C2235.8,167.82,2203.22,162.19,2185.36,163.36Z"/><ellipse class="cls-14" cx="2253.62" cy="255.24" rx="11.23" ry="14.3" transform="translate(-0.68 504.44) rotate(-12.77)"/><path class="cls-11" d="M2254.64,264.43a.82.82,0,0,1-.22,0,1.22,1.22,0,0,1-1-1.42c.82-4.57.91-10.54-3.3-13a1.23,1.23,0,0,1,1.25-2.11c4.29,2.53,5.83,7.91,4.46,15.56A1.21,1.21,0,0,1,2254.64,264.43Z"/><circle class="cls-15" cx="2278.74" cy="273.22" r="10.62"/><path class="cls-16" d="M2396.78,523.39c-7.93-5.2-22.78-6.6-37.65-6.41l-.77,34.24,22.49-2.71s52.69,33.08,57,30.63S2416.38,536.26,2396.78,523.39Z"/><path class="cls-11" d="M2315.29,520.94c-34.92-147.66-79.65-164.81-79.65-164.81l28.19,206.47,94.53-11.38.77-34.24A327.74,327.74,0,0,0,2315.29,520.94Z"/><path class="cls-10" d="M2291.4,598.75l-70.73-5-58.77-4.12-58.18-4.12a18.73,18.73,0,0,1-17.1-22c12.05-65.73,55-264.23,128.81-229.39C2303.65,375.74,2291.4,598.75,2291.4,598.75Z"/><path class="cls-17" d="M2244.2,582.82l-23.53,10.93-58.77-4.12c-20.14-60.73-6.52-161.2-6.52-161.2Z"/><path class="cls-10" d="M2252.59,545.24l-29.81-131.52-67.4,14.71c12.26,131.11,36.76,180.12,85.78,191.15,13,2.93,49.38-9,82.06-20.39l4.84-60.76C2295.62,541.09,2252.59,545.24,2252.59,545.24Z"/><path class="cls-14" d="M2361.24,536.26c-5,0-17.9.92-33.18,2.17l-4.84,60.76c32.15-11.25,60.9-22.91,60.9-22.91s58.81,19.61,59.63,8.17S2376.76,536.26,2361.24,536.26Z"/><rect class="cls-9" x="2323.38" y="586.5" width="161.01" height="17.37"/><path class="cls-11" d="M2484.39,603.87h-19.2l70.46-174.16a8.9,8.9,0,0,1,8.25-5.56h0a8.9,8.9,0,0,1,8.24,12.24Z"/><path class="cls-12" d="M2269.23,572c-13.64,0-22.71-2.74-27.06-8.21-15.56-19.56-21-103.35-24.52-158.8-1.46-22.81-2.62-40.82-4-47.84-4.56-22.81-22-23.63-22.15-23.64a1.83,1.83,0,0,1-1.77-1.9,1.86,1.86,0,0,1,1.89-1.77c.21,0,20.51.95,25.64,26.59,1.45,7.26,2.62,25.38,4.09,48.33,3.54,55,8.89,138.09,23.73,156.75,10.85,13.64,60.66,3.29,78.93-1.85a1.83,1.83,0,1,1,1,3.53,295.57,295.57,0,0,1-35.44,7.26A152,152,0,0,1,2269.23,572Z"/><path class="cls-18" d="M911.41,765.54A105.57,105.57,0,0,1,882.69,781c-51,18.09-105.92-5.54-122.68-52.74-12.4-35-.25-73.27,27.74-98a104.79,104.79,0,0,1,34.41-20.19c51-18.09,106,5.54,122.68,52.74C958.07,700.16,943.42,741.13,911.41,765.54Z"/><path class="cls-19" d="M911.41,765.54A105.57,105.57,0,0,1,882.69,781c-51,18.09-105.92-5.54-122.68-52.74-12.4-35-.25-73.27,27.74-98C786.67,672.66,801.72,744.81,911.41,765.54Z"/><path class="cls-20" d="M1479.2,604.55c-18.89,32.17-47.09,65.42-68.7,117.76a376.93,376.93,0,0,0-19,60.39,16.73,16.73,0,0,1-23.92,11.15c-59.81-30.59-103.35-67.45-124.86-112.72-12.11-25.41-7.32-55.6,11.21-76.81a185.15,185.15,0,0,1,109.94-61.42c31-5.14,63.72-2.57,95.75,8.31C1481.44,558.67,1490.92,584.66,1479.2,604.55Z"/><path class="cls-18" d="M1592.56,943.41a282.61,282.61,0,0,1-15.39,91.41,322.18,322.18,0,0,1-13.92,33.92c-21.52,45-53.67,85.78-92.69,120.53a476.23,476.23,0,0,1-40.88,32.44c-69.74,49.41-153.9,81.12-235.9,87q-13.89,1-27.64,1a682.38,682.38,0,0,1-96.51-6.52c-102.15-14.46-188.85-53.72-247-123.46-34.9-41.86-59.46-94.7-70.88-159.69-2.54-14.75-4.5-30.19-5.68-46.27q-1.19-14.85-1.47-30.44c-1.18-61.31,15-121.4,44.65-175.42,30.49-55.53,75.19-104.64,129.84-142A428,428,0,0,1,1161.24,551a432.54,432.54,0,0,1,68.91,5.54,448.89,448.89,0,0,1,177.18,69.5c53.53,35.44,98.38,81.46,130.53,133.51C1572.61,815.68,1592.56,878.86,1592.56,943.41Z"/><path class="cls-18" d="M1686.22,898.42l-6.71,76.75-2.6,29.85c-2.3,26.52-25,48-54.45,51.47a342.06,342.06,0,0,0-59.21,12.25c-34.41,10-67.4,24.75-99.79,41.57l4.8-24.31,65.48-329.67,4.12,3.23c35.63,27.7,75.82,57.25,123.56,89.55C1678.53,860.68,1687.89,879.3,1686.22,898.42Z"/><ellipse class="cls-11" cx="1460.2" cy="777.24" rx="21.24" ry="28.59" transform="translate(-123.38 299.18) rotate(-11.23)"/><path class="cls-20" d="M1093.79,660.41c-57,2.2-106.09,23-148.9,58.56a14.78,14.78,0,0,1-23.32-5.81l-4-10.35a14.59,14.59,0,0,1,3.69-16.15c46-41.4,101.1-64.84,167.67-65.66a14.84,14.84,0,0,1,14.08,9.39l3.9,10A14.7,14.7,0,0,1,1093.79,660.41Z"/><path class="cls-11" d="M1099.92,677.56c-57,2.21-106.09,23-148.9,58.57a14.78,14.78,0,0,1-23.32-5.82l-4-10.34a14.59,14.59,0,0,1,3.69-16.16c46-41.39,101.09-64.83,167.66-65.66a14.88,14.88,0,0,1,14.09,9.39l3.9,10A14.69,14.69,0,0,1,1099.92,677.56Z"/><path class="cls-18" d="M1074.63,1253.08l-5,50.19-10.15,101.27a49.59,49.59,0,0,1-49.3,44.6H928.71a49.55,49.55,0,0,1-48.08-37.55l-58-231.78-2.89-11.67Z"/><path class="cls-18" d="M1443.07,1168.14l-13.39,53.57-47.49,189.88a49.59,49.59,0,0,1-48.08,37.55h-81.46a49.52,49.52,0,0,1-49.31-44.6l-9.56-95.78-5.59-55.68Z"/><path class="cls-19" d="M1679.51,975.17l-2.6,29.85c-2.3,26.52-25,48-54.45,51.47a342.06,342.06,0,0,0-59.21,12.25c-21.52,45-53.67,85.78-92.69,120.53a476.23,476.23,0,0,1-40.88,32.44l-11.22,45-36.27,144.93a49.59,49.59,0,0,1-48.08,37.55h-81.46a49.52,49.52,0,0,1-49.31-44.6l-6.42-64.51-3.14-31.27q-13.89,1-27.64,1a682.38,682.38,0,0,1-96.51-6.52l-3.92,39-6.23,62.3a49.59,49.59,0,0,1-49.3,44.6H928.71a49.55,49.55,0,0,1-48.08-37.55l-30-119.79-28-112c-2.21-2.65-4.31-5.3-6.42-8-1.77-2.26-3.53-4.56-5.2-6.91a23.36,23.36,0,0,1-1.62-2.26c-1.71-2.3-3.33-4.65-4.9-7-.29-.39-.54-.73-.78-1.12-1.77-2.7-3.53-5.39-5.25-8.19s-3.33-5.39-5-8.18c-.24-.45-.54-.89-.78-1.38-1.67-2.89-3.28-5.78-4.85-8.77-1.82-3.43-3.63-6.91-5.35-10.49-1.37-2.84-2.74-5.73-4.06-8.63,0-.09,0-.14-.1-.24-1.32-3-2.6-6-3.82-9-1.82-4.26-3.53-8.63-5.1-13-.88-2.4-1.77-4.8-2.6-7.25-1.13-3.19-2.16-6.42-3.14-9.71-.58-1.71-1.12-3.48-1.61-5.24-1.67-5.54-3.19-11.18-4.56-17-.44-1.62-.84-3.23-1.18-4.85-.93-3.87-1.76-7.79-2.55-11.76-.63-3.14-1.27-6.33-1.86-9.56-.05-.39-.15-.74-.2-1.13-2.54-14.75-4.5-30.19-5.68-46.27,106.16,108.81,381.42,327.56,722.17,112.15q31.54-19.86,63.81-44.9a257,257,0,0,0,45.1-6.28C1610.3,1027.28,1653.83,1010.91,1679.51,975.17Z"/><path class="cls-21" d="M1069.63,1303.27l-3.92,39c-90.87-7.45-167.14-31.57-215-50.44l-28-112C880.78,1249.55,967.48,1288.81,1069.63,1303.27Z"/><path class="cls-21" d="M1429.68,1221.71l-11.22,45A581.7,581.7,0,0,1,1196.92,1340l-3.14-31.27C1275.78,1302.83,1359.94,1271.12,1429.68,1221.71Z"/><path class="cls-18" d="M1443.26,576.78c-18.9,32.17-47.09,65.42-68.7,117.76a374.78,374.78,0,0,0-19,60.38,16.73,16.73,0,0,1-23.92,11.15c-59.82-30.58-103.35-67.44-124.87-112.72-12.11-25.41-7.32-55.59,11.22-76.8a185.22,185.22,0,0,1,109.93-61.43c31-5.14,63.72-2.56,95.76,8.31C1445.5,530.9,1455,556.88,1443.26,576.78Z"/><path class="cls-19" d="M1374.56,694.54a374.78,374.78,0,0,0-19,60.38,16.73,16.73,0,0,1-23.92,11.15c-59.82-30.58-103.35-67.44-124.87-112.72-12.11-25.41-7.32-55.59,11.22-76.8a185.22,185.22,0,0,1,109.93-61.43c-30.15,29.32-71,77.47-53.78,110.19C1293,661.34,1340.92,684.75,1374.56,694.54Z"/><ellipse class="cls-19" cx="1432.84" cy="912.64" rx="46.56" ry="58.2"/><polygon class="cls-11" points="606.14 1342.51 592.66 1449.12 728.67 1447.89 667.4 1401.35 671.08 1342.51 606.14 1342.51"/><polygon class="cls-11" points="315.73 1320.48 282.65 1449.12 410.08 1447.89 366.18 1405.24 385.43 1329.74 315.73 1320.48"/><path class="cls-10" d="M722.56,1130l-27.74,215.27a22.15,22.15,0,0,1-22,19.31h-66a21,21,0,0,1-3.48-.29,22.1,22.1,0,0,1-18.53-23.68l4-121.8,2.94-88.27s-20.73-23.58-51.46-58.87c-12.4-14.26-26.52-30.43-41.52-47.74-33.33-38.37-66.9-82.09-87.34-122.24-9.41-18.33-16-35.92-18.67-51.9a95.53,95.53,0,0,1-1.13-9.66L445,842.35l7.1.29L509.4,845l1.57,0,49,47.4L690.46,1031.1A121.45,121.45,0,0,1,722.56,1130Z"/><path class="cls-10" d="M495.53,1182.41l-86.36,162a23.43,23.43,0,0,1-21.42,12.44l-9.17-.24-70.23-2.06a11.73,11.73,0,0,1-1.33-.1h0a13.43,13.43,0,0,1-10.83-18l77.59-208.75L318.2,1000.66c-15.78-42.79-9.9-80.72-1.08-106.65,7.6-22.4,17.4-35.88,17.4-35.88l58.33-8.33L445,842.35l6.76-1,.34,1.27L467,900.53l31.86,123.41L510,1067.22A157.16,157.16,0,0,1,495.53,1182.41Z"/><path class="cls-11" d="M560,892.44s-40.48,5.49-93,8.09c-17.49.78-36.36,1.32-55.48,1.17-32.35-.19-65.53-2.25-94.4-7.69,7.6-22.4,17.4-35.88,17.4-35.88l58.33-8.33a95.53,95.53,0,0,1-1.13-9.66L445,842.35l6.76-1,.34,1.27L509.4,845Z"/><polygon class="cls-11" points="496.55 1024.74 475.92 964.6 514.07 955.39 515.22 960.16 482.3 968.1 501.18 1023.15 496.55 1024.74"/><path class="cls-11" d="M377.43,1332.36c-47.36,0-73.05-9.1-74.38-9.58l1.67-4.61c.4.15,40.88,14.42,112.88,7.22l.49,4.88C403.14,1331.76,389.57,1332.36,377.43,1332.36Z"/><path class="cls-11" d="M641.68,1338.14c-33.12,0-57.37-5.39-57.73-5.47l1.08-4.78c.54.12,54.09,12,110.46,0l1,4.8A265.55,265.55,0,0,1,641.68,1338.14Z"/><rect class="cls-9" x="336.2" y="1407.58" width="30.74" height="4.9" transform="translate(-422.35 180.06) rotate(-18.18)"/><rect class="cls-9" x="641.24" y="1406.25" width="28.23" height="4.9" transform="translate(-637.8 547.49) rotate(-31.39)"/><path class="cls-11" d="M588.9,1218.82l2.94-88.27s-20.73-23.58-51.46-58.87c20,1.82,49.7,21.77,67.39,52.74,14.63,25.59,9.8,78.42,5.62,86.19C609.57,1217.7,600,1219.85,588.9,1218.82Z"/><polygon class="cls-16" points="613.49 546.06 612.02 553.07 601.19 604.04 593.25 641.64 533.25 617.13 574.92 512.34 613.49 546.06"/><path class="cls-11" d="M612,553.07l-10.83,51c-17.16-20.14-18.73-52.25-18.73-52.25Z"/><path class="cls-16" d="M648,492.49s-5.63,82.79-33.46,79.59-54.09-31.89-54.09-31.89c-4.15-21.55.15-44.57,9.55-68.49l60.89,1.37Z"/><path class="cls-11" d="M601.15,498.39a15.53,15.53,0,0,0,23.63-5.87,36,36,0,0,0,21.2,7.15c7.65-.07,15.4-3.17,20.38-8.84s6.86-13.94,4.1-20.81a14.82,14.82,0,0,0-6.66-7.24c-3.18-1.84-7.41-1.41-9.41-4.91s.87-6.9,0-10.54a15.27,15.27,0,0,0-4.78-8.1c-3.13-2.7-7.28-3.09-11.32-2.72-2.14.2-5.41,1.43-7.39.18-2.65-1.68-1.55-6-4-8.19a9.75,9.75,0,0,0-10.68-1.26c-2.4,1.26-4.2,3.52-6.75,4.48-3.95,1.48-8.22-.55-12.11-2.1s-9-2.41-11.83.64c-2.12,2.26-2,5.65-2,8.68s-.58,6.58-3.34,8c-2.41,1.28-5.44.31-7.7-1.16s-4.22-3.44-6.76-4.4c-5.63-2.14-12.82,2.48-13,8.36-.14,4.66,3.35,9.17,2,13.67s-6.94,6.54-11.8,7.24-10.31,1-13.7,4.52a9.15,9.15,0,0,0,1.52,13.64c2,1.29,4.45,1.76,6.69,2.63s4.46,2.41,4.95,4.7c.65,3-1.95,5.81-4.79,7.17s-6.08,1.84-8.83,3.38c-6.38,3.59-8,13.17-3.07,18.4a10,10,0,0,0,9.33,3.06c2.61-.4,5.44-2.64,8.15-2,4.89,1.09,2.75,7.62,5.13,10.75s5.65,3.81,9.26,2.84a22.19,22.19,0,0,0,8.3-4.76,47.38,47.38,0,0,0,15.2-24.12c.54-2.08.37-4,2.61-4.69,1.77-.54,4.65.35,6.68-.08A15.93,15.93,0,0,0,601.15,498.39Z"/><path class="cls-16" d="M652.67,533.74a9.56,9.56,0,1,1-11.1-7.73A9.55,9.55,0,0,1,652.67,533.74Z"/><ellipse class="cls-16" cx="583.92" cy="511.26" rx="12.96" ry="16.67" transform="translate(-129.02 204.56) rotate(-17.93)"/><path class="cls-11" d="M586.71,519.61a1.24,1.24,0,0,1-.33,0,1.23,1.23,0,0,1-.85-1.51c.08-.31,1.81-7.21-5.91-13.91a1.22,1.22,0,1,1,1.6-1.85c9,7.76,6.77,16.07,6.67,16.42A1.22,1.22,0,0,1,586.71,519.61Z"/><circle class="cls-15" cx="613.49" cy="529.31" r="11.85"/><path class="cls-7" d="M620.76,652.27c-.93,26.91-4.75,64.11-15.88,109.89a729.18,729.18,0,0,1-28.38,90.43q-7.43,19.33-16.52,39.85s-163.36-49-225.46-34.31c0,0,76.66-275.46,226.49-270.21C595.17,589.14,621.89,618.11,620.76,652.27Z"/><path class="cls-8" d="M604.88,762.16a729.18,729.18,0,0,1-28.38,90.43c-48.72-51.32-38.57-169.29-38.57-169.29Z"/><path class="cls-7" d="M586.94,598.34l-78.42,69.44c38.17,88.89,114.9,154.84,201.66,214.83l25.28-68.82C662.31,734.6,643.31,650.21,586.94,598.34Z"/><path class="cls-16" d="M780.06,853.35l-44.6-39.56-25.28,68.82,37.94,26.92a29.3,29.3,0,0,0,33.11.58c26.27-17.33,65.48-30.76,74.06-56.49C859.24,841.77,780.06,853.35,780.06,853.35Z"/><rect class="cls-11" y="1446.69" width="2793.79" height="4.9"/></g></g></svg>